<?xml version="1.0" encoding="UTF-8"?>
<svg xmlns="http://www.w3.org/2000/svg" xmlns:xlink="http://www.w3.org/1999/xlink" width="60px" height="60px" viewBox="0 0 60 60" version="1.1">
<defs>
<filter id="alpha" filterUnits="objectBoundingBox" x="0%" y="0%" width="100%" height="100%">
  <feColorMatrix type="matrix" in="SourceGraphic" values="0 0 0 0 1 0 0 0 0 1 0 0 0 0 1 0 0 0 1 0"/>
</filter>
<mask id="mask0">
  <g filter="url(#alpha)">
<rect x="0" y="0" width="60" height="60" style="fill:rgb(0%,0%,0%);fill-opacity:0.3;stroke:none;"/>
  </g>
</mask>
<clipPath id="clip1">
  <rect x="0" y="0" width="60" height="60"/>
</clipPath>
<g id="surface5" clip-path="url(#clip1)">
<path style=" stroke:none;fill-rule:evenodd;fill:rgb(0%,0%,0%);fill-opacity:1;" d="M 38.628906 19.867188 C 38.628906 19.867188 44.765625 25.597656 44.9375 31.316406 C 45.105469 35.175781 39.84375 41.171875 39.671875 41.3125 L 43.175781 41.339844 C 44.710938 41.351562 45.90625 42.484375 45.90625 43.769531 L 45.90625 44.058594 C 45.90625 45.488281 44.710938 46.488281 43.175781 46.488281 L 37.375 46.488281 C 38.910156 46.488281 40.105469 45.34375 40.105469 44.058594 L 40.105469 43.769531 C 40.105469 42.339844 38.910156 41.339844 37.375 41.339844 L 35.15625 41.199219 C 35.324219 41.054688 41.46875 35.050781 41.300781 31.191406 C 41.980469 24.617188 37.417969 21.03125 37.417969 21.03125 Z M 38.628906 19.867188 "/>
</g>
<mask id="mask1">
  <g filter="url(#alpha)">
<rect x="0" y="0" width="60" height="60" style="fill:rgb(0%,0%,0%);fill-opacity:0.3;stroke:none;"/>
  </g>
</mask>
<clipPath id="clip2">
  <rect x="0" y="0" width="60" height="60"/>
</clipPath>
<g id="surface8" clip-path="url(#clip2)">
<path style=" stroke:none;fill-rule:evenodd;fill:rgb(0%,0%,0%);fill-opacity:1;" d="M 51.867188 47.34375 L 51.867188 51.058594 C 51.867188 51.488281 51.355469 51.917969 50.84375 51.917969 L 45.039062 51.917969 C 45.550781 51.917969 45.894531 51.488281 45.894531 51.058594 L 45.894531 47.34375 C 45.894531 46.914062 45.550781 46.484375 45.039062 46.484375 L 50.84375 46.484375 C 51.523438 46.628906 51.867188 46.914062 51.867188 47.34375 Z M 51.867188 47.34375 "/>
</g>
<mask id="mask2">
  <g filter="url(#alpha)">
<rect x="0" y="0" width="60" height="60" style="fill:rgb(0%,0%,0%);fill-opacity:0.3;stroke:none;"/>
  </g>
</mask>
<clipPath id="clip3">
  <rect x="0" y="0" width="60" height="60"/>
</clipPath>
<g id="surface11" clip-path="url(#clip3)">
<path style=" stroke:none;fill-rule:evenodd;fill:rgb(0%,0%,0%);fill-opacity:1;" d="M 32.902344 14.042969 C 32.949219 14.082031 37.628906 17.710938 37.628906 17.710938 L 35.507812 19.488281 L 31.339844 14.308594 Z M 32.902344 14.042969 "/>
</g>
</defs>
<g id="surface1">
<path style="fill-rule:evenodd;fill:rgb(30.19608%,27.450982%,24.705882%);fill-opacity:1;stroke-width:5.745;stroke-linecap:butt;stroke-linejoin:miter;stroke:rgb(22.352941%,17.647059%,17.647059%);stroke-opacity:1;stroke-miterlimit:4;" d="M 1651.496598 -623.494783 C 1661.495532 -612.52455 1671.232321 -599.138624 1671.731644 -585.628178 C 1672.230966 -573.574618 1653.86838 -554.410953 1653.86838 -553.925324 L 1594.673694 -553.925324 C 1594.673694 -554.410953 1576.435938 -573.699138 1576.81043 -585.628178 C 1577.684245 -608.539902 1605.409128 -631.327107 1615.03357 -642.060752 C 1617.904675 -645.18621 1621.025441 -646.032947 1624.146206 -645.547318 C 1627.266972 -645.920879 1630.512569 -645.18621 1633.258843 -642.060752 C 1636.0176 -639.047362 1640.261841 -634.938194 1644.880575 -630.243781 L 1617.405352 -603.720969 L 1623.147561 -596.361823 Z M 1651.496598 -623.494783 " transform="matrix(0.312924,0,0,0.313704,-478.164001,215.460004)"/>
<path style="fill-rule:evenodd;fill:rgb(30.19608%,27.450982%,24.705882%);fill-opacity:1;stroke-width:5.745;stroke-linecap:round;stroke-linejoin:round;stroke:rgb(22.352941%,17.647059%,17.647059%);stroke-opacity:1;stroke-miterlimit:4;" d="M 1635.455862 -651.100921 C 1635.455862 -645.634483 1630.412704 -641.214014 1624.196139 -641.214014 C 1617.979573 -641.214014 1612.948899 -645.634483 1612.948899 -651.100921 C 1612.948899 -656.554908 1617.979573 -660.987829 1624.196139 -660.987829 C 1630.412704 -660.987829 1635.455862 -656.554908 1635.455862 -651.100921 Z M 1635.455862 -651.100921 " transform="matrix(0.312924,0,0,0.313704,-478.164001,215.460004)"/>
<path style="fill-rule:evenodd;fill:rgb(30.19608%,27.450982%,24.705882%);fill-opacity:1;stroke-width:5.745;stroke-linecap:round;stroke-linejoin:round;stroke:rgb(22.352941%,17.647059%,17.647059%);stroke-opacity:1;stroke-miterlimit:4;" d="M 1583.401488 -555.13317 L 1666.089299 -555.13317 C 1671.14494 -555.13317 1675.326766 -551.634151 1675.326766 -547.412915 L 1675.326766 -545.84396 C 1675.326766 -541.622724 1671.14494 -538.136157 1666.089299 -538.136157 L 1583.401488 -538.136157 C 1578.345847 -538.136157 1574.164021 -541.622724 1574.164021 -545.84396 L 1574.164021 -547.412915 C 1574.164021 -551.634151 1578.345847 -555.13317 1583.401488 -555.13317 Z M 1583.401488 -555.13317 " transform="matrix(0.312924,0,0,0.313704,-478.164001,215.460004)"/>
<path style="fill-rule:evenodd;fill:rgb(30.19608%,27.450982%,24.705882%);fill-opacity:1;stroke-width:5.745;stroke-linecap:round;stroke-linejoin:round;stroke:rgb(22.352941%,17.647059%,17.647059%);stroke-opacity:1;stroke-miterlimit:4;" d="M 1556.999809 -538.248225 L 1690.918112 -538.248225 C 1692.653258 -538.248225 1693.951496 -537.164899 1693.951496 -535.720464 L 1693.951496 -523.903493 C 1693.951496 -522.459058 1692.653258 -521.375732 1690.918112 -521.375732 L 1556.999809 -521.375732 C 1555.264663 -521.375732 1553.966424 -522.459058 1553.966424 -523.903493 L 1553.966424 -535.720464 C 1553.966424 -537.164899 1555.264663 -538.248225 1556.999809 -538.248225 Z M 1556.999809 -538.248225 " transform="matrix(0.312924,0,0,0.313704,-478.164001,215.460004)"/>
<use xlink:href="#surface5" mask="url(#mask0)"/>
<use xlink:href="#surface8" mask="url(#mask1)"/>
<use xlink:href="#surface11" mask="url(#mask2)"/>
</g>
</svg>
