<?xml version="1.0" encoding="UTF-8"?>
<svg xmlns="http://www.w3.org/2000/svg" xmlns:xlink="http://www.w3.org/1999/xlink" width="60px" height="60px" viewBox="0 0 60 60" version="1.1">
<defs>
<filter id="alpha" filterUnits="objectBoundingBox" x="0%" y="0%" width="100%" height="100%">
  <feColorMatrix type="matrix" in="SourceGraphic" values="0 0 0 0 1 0 0 0 0 1 0 0 0 0 1 0 0 0 1 0"/>
</filter>
<mask id="mask0">
  <g filter="url(#alpha)">
<rect x="0" y="0" width="60" height="60" style="fill:rgb(0%,0%,0%);fill-opacity:0.3;stroke:none;"/>
  </g>
</mask>
<clipPath id="clip1">
  <rect x="0" y="0" width="60" height="60"/>
</clipPath>
<g id="surface5" clip-path="url(#clip1)">
<path style=" stroke:none;fill-rule:evenodd;fill:rgb(0%,0%,0%);fill-opacity:1;" d="M 41.226562 15.921875 C 45.347656 15.769531 50.324219 17.96875 51.425781 21.371094 C 52.660156 29.953125 46.925781 36.332031 40.210938 41.519531 L 42.039062 41.519531 C 43.523438 41.519531 44.757812 42.632812 44.757812 43.980469 L 44.757812 44.476562 C 44.757812 45.824219 43.523438 46.9375 42.039062 46.9375 L 34.769531 46.9375 C 42.71875 47.050781 40.71875 41.597656 36.726562 41.558594 C 53 20.042969 45.65625 17.300781 27.296875 21.953125 C 25.128906 20.414062 38.027344 15.457031 41.226562 15.921875 Z M 41.226562 15.921875 "/>
</g>
<mask id="mask1">
  <g filter="url(#alpha)">
<rect x="0" y="0" width="60" height="60" style="fill:rgb(0%,0%,0%);fill-opacity:0.3;stroke:none;"/>
  </g>
</mask>
<clipPath id="clip2">
  <rect x="0" y="0" width="60" height="60"/>
</clipPath>
<g id="surface8" clip-path="url(#clip2)">
<path style=" stroke:none;fill-rule:evenodd;fill:rgb(0%,0%,0%);fill-opacity:1;" d="M 50.265625 47.320312 L 50.265625 51.085938 C 50.265625 51.546875 49.882812 51.894531 49.375 51.894531 L 42.617188 51.894531 C 43.085938 51.894531 43.511719 51.507812 43.511719 51.046875 L 43.511719 47.359375 C 43.511719 46.898438 43.128906 46.515625 42.617188 46.515625 L 49.375 46.515625 C 49.882812 46.515625 50.265625 46.859375 50.265625 47.320312 Z M 50.265625 47.320312 "/>
</g>
</defs>
<g id="surface1">
<path style="fill-rule:evenodd;fill:rgb(30.19608%,27.450982%,24.705882%);fill-opacity:1;stroke-width:5.7457;stroke-linecap:round;stroke-linejoin:round;stroke:rgb(22.352941%,17.647059%,17.647059%);stroke-opacity:1;stroke-miterlimit:4;" d="M 1275.503675 -556.674905 L 1353.325524 -556.674905 C 1358.082483 -556.674905 1361.890547 -552.876892 1361.890547 -548.219657 L 1361.890547 -547.970607 C 1361.890547 -543.325824 1358.082483 -539.527811 1353.325524 -539.527811 L 1275.503675 -539.527811 C 1270.746716 -539.527811 1266.938652 -543.325824 1266.938652 -547.970607 L 1266.938652 -548.219657 C 1266.938652 -552.876892 1270.746716 -556.674905 1275.503675 -556.674905 Z M 1275.503675 -556.674905 " transform="matrix(0.312864,0,0,0.313692,-381.359985,216.143994)"/>
<path style="fill-rule:evenodd;fill:rgb(30.19608%,27.450982%,24.705882%);fill-opacity:1;stroke-width:5.7457;stroke-linecap:round;stroke-linejoin:miter;stroke:rgb(22.352941%,17.647059%,17.647059%);stroke-opacity:1;stroke-miterlimit:4;" d="M 1307.703667 -663.230958 L 1307.703667 -654.651185 L 1295.480405 -654.651185 L 1295.480405 -644.863519 L 1307.703667 -644.863519 L 1307.703667 -632.249135 C 1298.189749 -635.187925 1279.985954 -641.190031 1266.539117 -637.504091 C 1220.23056 -619.385701 1259.347495 -568.554591 1280.397974 -556.674905 L 1347.632156 -556.674905 C 1376.835638 -578.60376 1407.125355 -624.404059 1361.491012 -637.504091 C 1348.044176 -641.065506 1320.064268 -632.249135 1320.064268 -632.249135 L 1320.064268 -644.863519 L 1332.28753 -644.863519 L 1332.28753 -654.651185 L 1320.064268 -654.651185 L 1320.064268 -663.230958 Z M 1281.346869 -613.993768 C 1292.209216 -613.993768 1303.620923 -609.22446 1303.620923 -609.22446 L 1303.620923 -587.295606 L 1278.774865 -587.295606 C 1278.774865 -587.295606 1263.829773 -601.018262 1272.107631 -611.304028 C 1273.605886 -613.259071 1277.13927 -613.993768 1281.346869 -613.993768 Z M 1346.271241 -613.993768 C 1350.491325 -613.993768 1354.012224 -613.383596 1355.510479 -611.428553 C 1363.800822 -601.130334 1348.85573 -587.420131 1348.85573 -587.420131 L 1323.997187 -587.420131 L 1323.997187 -609.336533 C 1323.997187 -609.336533 1335.408894 -613.869243 1346.271241 -613.993768 Z M 1346.271241 -613.993768 " transform="matrix(0.312864,0,0,0.313692,-381.359985,216.143994)"/>
<path style="fill-rule:evenodd;fill:rgb(30.19608%,27.450982%,24.705882%);fill-opacity:1;stroke-width:5.7457;stroke-linecap:round;stroke-linejoin:round;stroke:rgb(22.352941%,17.647059%,17.647059%);stroke-opacity:1;stroke-miterlimit:4;" d="M 1250.695074 -540.748156 L 1376.74824 -540.748156 C 1378.383835 -540.748156 1379.607409 -539.652336 1379.607409 -538.18294 L 1379.607409 -526.178729 C 1379.607409 -524.709334 1378.383835 -523.601062 1376.74824 -523.601062 L 1250.695074 -523.601062 C 1249.071964 -523.601062 1247.848389 -524.709334 1247.848389 -526.178729 L 1247.848389 -538.18294 C 1247.848389 -539.652336 1249.071964 -540.748156 1250.695074 -540.748156 Z M 1250.695074 -540.748156 " transform="matrix(0.312864,0,0,0.313692,-381.359985,216.143994)"/>
<use xlink:href="#surface5" mask="url(#mask0)"/>
<use xlink:href="#surface8" mask="url(#mask1)"/>
</g>
</svg>
