<?xml version="1.0" encoding="UTF-8"?>
<svg xmlns="http://www.w3.org/2000/svg" xmlns:xlink="http://www.w3.org/1999/xlink" width="60px" height="60px" viewBox="0 0 60 60" version="1.1">
<defs>
<filter id="alpha" filterUnits="objectBoundingBox" x="0%" y="0%" width="100%" height="100%">
  <feColorMatrix type="matrix" in="SourceGraphic" values="0 0 0 0 1 0 0 0 0 1 0 0 0 0 1 0 0 0 1 0"/>
</filter>
<mask id="mask0">
  <g filter="url(#alpha)">
<rect x="0" y="0" width="60" height="60" style="fill:rgb(0%,0%,0%);fill-opacity:0.3;stroke:none;"/>
  </g>
</mask>
<clipPath id="clip1">
  <rect x="0" y="0" width="60" height="60"/>
</clipPath>
<g id="surface5" clip-path="url(#clip1)">
<path style=" stroke:none;fill-rule:evenodd;fill:rgb(0%,0%,0%);fill-opacity:1;" d="M 30.160156 16.070312 C 34.515625 16.070312 38.042969 18.992188 38.042969 22.628906 C 38.042969 24.503906 37.082031 26.300781 35.382812 27.539062 L 38.777344 27.539062 C 39.738281 27.539062 40.472656 28.175781 40.472656 28.925781 L 40.472656 30.386719 C 40.472656 31.695312 39.144531 32.785156 37.539062 32.785156 L 34.46875 32.785156 C 36.210938 39.117188 40.65625 44.664062 41.753906 46.648438 L 43.039062 46.648438 C 44.640625 46.648438 45.972656 47.734375 45.972656 49.046875 L 45.972656 49.535156 C 45.972656 50.84375 44.640625 51.933594 43.039062 51.933594 L 38.914062 51.933594 C 40.515625 51.933594 41.847656 50.84375 41.847656 49.496094 L 41.847656 49.085938 C 41.847656 47.773438 40.515625 46.6875 38.914062 46.6875 L 37.355469 46.6875 C 36.253906 44.699219 33.183594 39.152344 31.441406 32.820312 L 34.652344 32.820312 C 35.613281 32.820312 36.347656 32.183594 36.347656 31.433594 L 36.347656 29 C 36.347656 28.210938 35.566406 27.613281 34.652344 27.613281 L 31.945312 27.613281 C 36.730469 22.292969 31.046875 16.324219 30.160156 16.070312 Z M 30.160156 16.070312 "/>
</g>
</defs>
<g id="surface1">
<path style="fill-rule:evenodd;fill:rgb(30.19608%,27.450982%,24.705882%);fill-opacity:1;stroke-width:5.8094;stroke-linecap:round;stroke-linejoin:round;stroke:rgb(22.352941%,17.647059%,17.647059%);stroke-opacity:1;stroke-miterlimit:4;" d="M 1873.203368 -556.279478 L 1955.162647 -556.279478 C 1960.160908 -556.279478 1964.317997 -552.654902 1964.317997 -548.274119 L 1964.317997 -546.644364 C 1964.317997 -542.276619 1960.160908 -538.639005 1955.162647 -538.639005 L 1873.203368 -538.639005 C 1868.192917 -538.639005 1864.048018 -542.276619 1864.048018 -546.644364 L 1864.048018 -548.274119 C 1864.048018 -552.654902 1868.192917 -556.279478 1873.203368 -556.279478 Z M 1873.203368 -556.279478 " transform="matrix(0.320424,0,0,0.299604,-583.356006,213.311993)"/>
<path style="fill-rule:evenodd;fill:rgb(30.19608%,27.450982%,24.705882%);fill-opacity:1;stroke-width:5.8094;stroke-linecap:butt;stroke-linejoin:miter;stroke:rgb(22.352941%,17.647059%,17.647059%);stroke-opacity:1;stroke-miterlimit:4;" d="M 1878.104102 -556.149097 C 1882.10271 -563.906733 1900.986381 -588.665978 1902.985686 -614.559533 C 1907.130584 -610.804576 1909.42247 -614.689913 1914.432921 -614.689913 C 1919.577472 -614.689913 1921.869357 -610.934957 1925.867965 -614.559533 C 1927.87946 -588.796359 1946.750941 -564.024076 1950.76174 -556.279478 Z M 1878.104102 -556.149097 " transform="matrix(0.320424,0,0,0.299604,-583.356006,213.311993)"/>
<path style="fill-rule:evenodd;fill:rgb(30.19608%,27.450982%,24.705882%);fill-opacity:1;stroke-width:5.8094;stroke-linecap:round;stroke-linejoin:round;stroke:rgb(22.352941%,17.647059%,17.647059%);stroke-opacity:1;stroke-miterlimit:4;" d="M 1938.997542 -636.580788 C 1938.997542 -624.416294 1927.989178 -614.572571 1914.396348 -614.572571 C 1900.815709 -614.572571 1889.795155 -624.416294 1889.795155 -636.580788 C 1889.795155 -648.732245 1900.815709 -658.589006 1914.396348 -658.589006 C 1927.989178 -658.589006 1938.997542 -648.732245 1938.997542 -636.580788 Z M 1938.997542 -636.580788 " transform="matrix(0.320424,0,0,0.299604,-583.356006,213.311993)"/>
<path style="fill-rule:evenodd;fill:rgb(30.19608%,27.450982%,24.705882%);fill-opacity:1;stroke-width:5.8094;stroke-linecap:round;stroke-linejoin:round;stroke:rgb(22.352941%,17.647059%,17.647059%);stroke-opacity:1;stroke-miterlimit:4;" d="M 1891.794459 -620.074625 L 1937.99789 -620.074625 C 1943.008341 -620.074625 1947.15324 -616.437011 1947.15324 -612.069266 L 1947.15324 -610.439511 C 1947.15324 -606.058728 1943.008341 -602.434152 1937.99789 -602.434152 L 1891.794459 -602.434152 C 1886.796198 -602.434152 1882.651299 -606.058728 1882.651299 -610.439511 L 1882.651299 -612.069266 C 1882.651299 -616.437011 1886.796198 -620.074625 1891.794459 -620.074625 Z M 1891.794459 -620.074625 " transform="matrix(0.320424,0,0,0.299604,-583.356006,213.311993)"/>
<use xlink:href="#surface5" mask="url(#mask0)"/>
</g>
</svg>
