<?xml version="1.0" encoding="UTF-8"?>
<svg xmlns="http://www.w3.org/2000/svg" xmlns:xlink="http://www.w3.org/1999/xlink" width="60px" height="60px" viewBox="0 0 60 60" version="1.1">
<defs>
<filter id="alpha" filterUnits="objectBoundingBox" x="0%" y="0%" width="100%" height="100%">
  <feColorMatrix type="matrix" in="SourceGraphic" values="0 0 0 0 1 0 0 0 0 1 0 0 0 0 1 0 0 0 1 0"/>
</filter>
<mask id="mask0">
  <g filter="url(#alpha)">
<rect x="0" y="0" width="60" height="60" style="fill:rgb(0%,0%,0%);fill-opacity:0.3;stroke:none;"/>
  </g>
</mask>
<clipPath id="clip1">
  <rect x="0" y="0" width="60" height="60"/>
</clipPath>
<g id="surface5" clip-path="url(#clip1)">
<path style=" stroke:none;fill-rule:evenodd;fill:rgb(1.176471%,1.176471%,1.176471%);fill-opacity:1;" d="M 49.214844 17.9375 C 48.421875 17.9375 47.71875 18.296875 47.234375 18.894531 C 47.585938 19.332031 47.804688 19.886719 47.804688 20.445312 C 47.804688 21.003906 47.628906 21.558594 47.234375 22 C 47.277344 22.039062 47.320312 22.117188 47.367188 22.15625 L 42.921875 26.296875 L 37.03125 41.144531 L 40.988281 41.144531 L 48.289062 22.753906 C 48.597656 22.875 48.90625 22.914062 49.214844 22.914062 C 50.621094 22.914062 51.765625 21.800781 51.765625 20.40625 C 51.71875 19.050781 50.621094 17.9375 49.214844 17.9375 Z M 36.679688 41.144531 C 38.21875 41.144531 39.449219 42.300781 39.449219 43.734375 L 39.449219 44.089844 C 39.449219 45.523438 38.21875 46.679688 36.722656 46.679688 L 42.394531 46.679688 C 43.933594 46.679688 45.210938 45.523438 45.210938 44.132812 L 45.210938 43.613281 C 45.210938 42.21875 43.933594 41.066406 42.394531 41.066406 L 36.679688 41.066406 Z M 44.242188 46.320312 C 44.769531 46.320312 45.167969 46.71875 45.167969 47.195312 L 45.167969 51.019531 C 45.167969 51.496094 44.769531 51.894531 44.242188 51.894531 L 49.960938 51.894531 C 50.488281 51.894531 50.886719 51.535156 50.886719 51.058594 L 50.886719 47.15625 C 50.886719 46.679688 50.488281 46.320312 49.960938 46.320312 Z M 44.242188 46.320312 "/>
</g>
</defs>
<g id="surface1">
<path style="fill-rule:evenodd;fill:rgb(90.588236%,83.92157%,76.47059%);fill-opacity:1;stroke-width:5.7425;stroke-linecap:butt;stroke-linejoin:miter;stroke:rgb(22.352941%,17.647059%,17.647059%);stroke-opacity:1;stroke-miterlimit:4;" d="M 1152.99668 -661.886163 C 1148.550664 -661.886163 1144.991353 -658.391823 1144.991353 -654.027006 C 1144.991353 -650.532666 1147.663958 -647.038325 1151.223269 -646.167849 L 1143.667539 -598.142429 L 1121.437458 -636.555304 C 1124.097575 -637.873454 1125.433877 -640.484882 1125.433877 -643.543985 C 1125.433877 -647.908802 1121.874567 -651.403142 1117.42855 -651.403142 C 1112.982534 -651.403142 1109.435712 -647.908802 1109.435712 -643.543985 C 1109.435712 -639.179168 1112.982534 -635.684828 1117.42855 -635.684828 L 1118.315256 -635.684828 L 1122.761272 -592.471898 L 1096.534772 -616.919846 C 1097.871075 -618.225561 1098.75778 -620.414187 1098.75778 -622.155139 C 1098.75778 -626.519956 1095.198469 -630.014296 1090.752453 -630.014296 C 1086.306437 -630.014296 1082.759615 -626.519956 1082.759615 -622.155139 C 1082.759615 -617.790322 1086.306437 -614.295982 1090.752453 -614.295982 C 1091.651647 -614.295982 1092.975461 -614.295982 1093.874656 -614.73122 L 1116.991442 -556.235214 L 1188.56481 -556.235214 L 1211.681596 -614.73122 C 1212.580791 -614.295982 1213.467496 -614.295982 1214.803799 -614.295982 C 1219.249815 -614.295982 1222.796637 -617.790322 1222.796637 -622.155139 C 1222.796637 -626.519956 1219.249815 -630.014296 1214.803799 -630.014296 C 1210.357783 -630.014296 1206.798472 -626.519956 1206.798472 -622.155139 C 1206.798472 -619.966513 1207.685177 -618.225561 1209.02148 -616.919846 L 1182.782491 -592.471898 L 1187.228507 -635.684828 L 1188.127702 -635.684828 C 1192.573718 -635.684828 1196.12054 -639.179168 1196.12054 -643.543985 C 1196.12054 -647.908802 1192.573718 -651.403142 1188.127702 -651.403142 C 1183.681685 -651.403142 1180.122375 -647.908802 1180.122375 -643.543985 C 1180.122375 -640.484882 1181.895786 -637.873454 1184.118794 -636.555304 L 1161.888713 -598.142429 L 1154.332983 -646.167849 C 1157.892294 -647.038325 1160.55241 -650.097428 1160.55241 -654.027006 C 1161.002007 -658.391823 1157.442696 -661.886163 1152.99668 -661.886163 Z M 1152.99668 -661.886163 " transform="matrix(0.31278,0,0,0.314124,-330.564001,216.011993)"/>
<path style="fill-rule:evenodd;fill:rgb(90.588236%,83.92157%,76.47059%);fill-opacity:1;stroke-width:5.7425;stroke-linecap:round;stroke-linejoin:round;stroke:rgb(22.352941%,17.647059%,17.647059%);stroke-opacity:1;stroke-miterlimit:4;" d="M 1111.796097 -556.670453 L 1192.373897 -556.670453 C 1197.294488 -556.670453 1201.378329 -552.989581 1201.378329 -548.562588 L 1201.378329 -546.908683 C 1201.378329 -542.481689 1197.294488 -538.800818 1192.373897 -538.800818 L 1111.796097 -538.800818 C 1106.875506 -538.800818 1102.804154 -542.481689 1102.804154 -546.908683 L 1102.804154 -548.562588 C 1102.804154 -552.989581 1106.875506 -556.670453 1111.796097 -556.670453 Z M 1111.796097 -556.670453 " transform="matrix(0.31278,0,0,0.314124,-330.564001,216.011993)"/>
<path style="fill-rule:evenodd;fill:rgb(90.588236%,83.92157%,76.47059%);fill-opacity:1;stroke-width:5.7425;stroke-linecap:round;stroke-linejoin:round;stroke:rgb(22.352941%,17.647059%,17.647059%);stroke-opacity:1;stroke-miterlimit:4;" d="M 1087.505363 -540.206016 L 1218.000934 -540.206016 C 1219.686923 -540.206016 1220.948293 -539.061961 1220.948293 -537.544845 L 1220.948293 -525.121905 C 1220.948293 -523.604789 1219.686923 -522.460735 1218.000934 -522.460735 L 1087.505363 -522.460735 C 1085.806885 -522.460735 1084.545515 -523.604789 1084.545515 -525.121905 L 1084.545515 -537.544845 C 1084.545515 -539.061961 1085.806885 -540.206016 1087.505363 -540.206016 Z M 1087.505363 -540.206016 " transform="matrix(0.31278,0,0,0.314124,-330.564001,216.011993)"/>
<use xlink:href="#surface5" mask="url(#mask0)"/>
</g>
</svg>
