<?xml version="1.0" encoding="UTF-8"?>
<svg xmlns="http://www.w3.org/2000/svg" xmlns:xlink="http://www.w3.org/1999/xlink" width="60px" height="60px" viewBox="0 0 60 60" version="1.1">
<defs>
<filter id="alpha" filterUnits="objectBoundingBox" x="0%" y="0%" width="100%" height="100%">
  <feColorMatrix type="matrix" in="SourceGraphic" values="0 0 0 0 1 0 0 0 0 1 0 0 0 0 1 0 0 0 1 0"/>
</filter>
<mask id="mask0">
  <g filter="url(#alpha)">
<rect x="0" y="0" width="60" height="60" style="fill:rgb(0%,0%,0%);fill-opacity:0.3;stroke:none;"/>
  </g>
</mask>
<clipPath id="clip1">
  <rect x="0" y="0" width="60" height="60"/>
</clipPath>
<g id="surface5" clip-path="url(#clip1)">
<path style=" stroke:none;fill-rule:evenodd;fill:rgb(0%,0%,0%);fill-opacity:1;" d="M 43.859375 8.164062 L 43.859375 22.617188 L 37.203125 22.617188 C 35.839844 23.222656 39.765625 40.816406 40.617188 40.664062 L 43.175781 40.664062 C 44.714844 40.664062 46.078125 41.878906 46.078125 43.246094 L 46.078125 43.703125 C 46.078125 45.066406 44.714844 46.285156 43.175781 46.285156 L 37.714844 46.285156 C 39.253906 46.285156 40.617188 45.066406 40.617188 43.703125 L 40.617188 43.246094 C 40.617188 41.878906 39.253906 40.664062 37.714844 40.664062 L 35.496094 40.664062 L 31.742188 22.617188 L 34.132812 14.238281 L 39.59375 14.238281 L 39.59375 8.164062 Z M 43.859375 8.164062 "/>
</g>
<mask id="mask1">
  <g filter="url(#alpha)">
<rect x="0" y="0" width="60" height="60" style="fill:rgb(0%,0%,0%);fill-opacity:0.3;stroke:none;"/>
  </g>
</mask>
<clipPath id="clip2">
  <rect x="0" y="0" width="60" height="60"/>
</clipPath>
<g id="surface8" clip-path="url(#clip2)">
<path style=" stroke:none;fill-rule:evenodd;fill:rgb(0%,0%,0%);fill-opacity:1;" d="M 51.859375 47.195312 L 51.859375 51.144531 C 51.859375 51.601562 51.347656 52.054688 50.835938 52.054688 L 45.375 52.054688 C 45.886719 52.054688 46.398438 51.601562 46.398438 51.144531 L 46.398438 47.195312 C 46.398438 46.738281 45.886719 46.285156 45.375 46.285156 L 50.835938 46.285156 C 51.519531 46.285156 51.859375 46.589844 51.859375 47.195312 Z M 51.859375 47.195312 "/>
</g>
</defs>
<g id="surface1">
<path style="fill-rule:evenodd;fill:rgb(90.588236%,83.92157%,76.47059%);fill-opacity:1;stroke-width:5.7357;stroke-linecap:round;stroke-linejoin:round;stroke:rgb(22.352941%,17.647059%,17.647059%);stroke-opacity:1;stroke-miterlimit:4;" d="M 1708.903393 -538.448142 L 1842.483608 -538.448142 C 1844.201922 -538.448142 1845.496883 -537.303431 1845.496883 -535.76056 L 1845.496883 -523.218514 C 1845.496883 -521.688085 1844.201922 -520.530932 1842.483608 -520.530932 L 1708.903393 -520.530932 C 1707.172628 -520.530932 1705.877666 -521.688085 1705.877666 -523.218514 L 1705.877666 -535.76056 C 1705.877666 -537.303431 1707.172628 -538.448142 1708.903393 -538.448142 Z M 1708.903393 -538.448142 " transform="matrix(0.313716,0,0,0.313944,-527.040015,215.315991)"/>
<path style="fill-rule:evenodd;fill:rgb(90.588236%,83.92157%,76.47059%);fill-opacity:1;stroke-width:5.7357;stroke-linecap:butt;stroke-linejoin:miter;stroke:rgb(22.352941%,17.647059%,17.647059%);stroke-opacity:1;stroke-miterlimit:4;" d="M 1797.994224 -622.920317 L 1753.380325 -622.920317 C 1753.093939 -586.438889 1741.576257 -556.365351 1741.576257 -556.365351 L 1809.661325 -556.489776 C 1809.661325 -556.489776 1798.293061 -586.575756 1797.994224 -622.920317 " transform="matrix(0.313716,0,0,0.313944,-527.040015,215.315991)"/>
<path style="fill-rule:evenodd;fill:rgb(90.588236%,83.92157%,76.47059%);fill-opacity:1;stroke-width:5.7357;stroke-linecap:round;stroke-linejoin:round;stroke:rgb(22.352941%,17.647059%,17.647059%);stroke-opacity:1;stroke-miterlimit:4;" d="M 1731.801791 -660.036314 L 1731.801791 -613.79996 L 1821.042041 -613.79996 L 1821.042041 -660.036314 L 1806.648051 -660.036314 L 1806.648051 -639.555948 L 1789.377752 -639.555948 L 1789.377752 -660.036314 L 1763.46608 -660.036314 L 1763.46608 -639.555948 L 1744.751402 -639.555948 L 1744.751402 -660.036314 Z M 1731.801791 -660.036314 " transform="matrix(0.313716,0,0,0.313944,-527.040015,215.315991)"/>
<path style="fill-rule:evenodd;fill:rgb(90.588236%,83.92157%,76.47059%);fill-opacity:1;stroke-width:5.7357;stroke-linecap:round;stroke-linejoin:round;stroke:rgb(22.352941%,17.647059%,17.647059%);stroke-opacity:1;stroke-miterlimit:4;" d="M 1733.794039 -556.365351 L 1816.273098 -556.365351 C 1821.315975 -556.365351 1825.487244 -552.657484 1825.487244 -548.178181 L 1825.487244 -546.510886 C 1825.487244 -542.031583 1821.315975 -538.323716 1816.273098 -538.323716 L 1733.794039 -538.323716 C 1728.763613 -538.323716 1724.592344 -542.031583 1724.592344 -546.510886 L 1724.592344 -548.178181 C 1724.592344 -552.657484 1728.763613 -556.365351 1733.794039 -556.365351 Z M 1733.794039 -556.365351 " transform="matrix(0.313716,0,0,0.313944,-527.040015,215.315991)"/>
<use xlink:href="#surface5" mask="url(#mask0)"/>
<use xlink:href="#surface8" mask="url(#mask1)"/>
</g>
</svg>
