<?xml version="1.0" encoding="UTF-8"?>
<svg xmlns="http://www.w3.org/2000/svg" xmlns:xlink="http://www.w3.org/1999/xlink" width="60px" height="60px" viewBox="0 0 60 60" version="1.1">
<defs>
<linearGradient id="linear0" gradientUnits="userSpaceOnUse" x1="3711.484863" y1="-422.943756" x2="3709.626465" y2="-304.622314" gradientTransform="matrix(0.31308,0,0,0.32134,-1135.404541,141.898544)">
<stop offset="0" style="stop-color:rgb(100%,100%,100%);stop-opacity:1;"/>
<stop offset="1" style="stop-color:rgb(86.274511%,86.274511%,86.274511%);stop-opacity:1;"/>
</linearGradient>
</defs>
<g id="surface1">
<path style="fill-rule:evenodd;fill:url(#linear0);stroke-width:0.8;stroke-linecap:butt;stroke-linejoin:miter;stroke:rgb(0%,0%,0%);stroke-opacity:1;stroke-miterlimit:4;" d="M 19.251302 6.419271 C 18.531901 6.738281 19.817708 9.345703 19.628906 10.211589 C 19.251302 10.85612 13.83138 8.603516 14.208984 9.182943 C 14.332682 9.407552 15.179036 11.435547 17.373047 12.080078 C 17.548828 12.578125 14.029948 17.708333 14.029948 17.708333 C 13.307292 18.997396 13.707682 19.541016 12.861328 20.794271 C 9.944661 25.169271 7.1875 27.197266 6.907552 31.119792 C 6.780599 32.919922 8.317057 33.499349 10.416667 34.527995 C 14.020182 37.64974 16.067708 31.666667 18.105469 30.218099 C 19.954427 29.029948 22.447917 29.095052 23.577474 27.613932 C 23.222656 35.898438 17.571615 35.957031 16.119792 43.60026 L 43.098958 43.60026 L 43.098958 41.829427 C 43.037109 34.593099 42.503255 27.067057 39.339193 20.732422 C 36.455078 15.23112 30.094401 10.758464 23.701172 9.794922 C 22.949219 9.472656 23.138021 8.186849 21.855469 7.57487 C 20.192057 6.676432 19.567057 6.48112 19.251302 6.419271 Z M 19.251302 6.419271 " transform="matrix(1.2,0,0,1.2,0,0)"/>
<path style=" stroke:none;fill-rule:evenodd;fill:rgb(0%,0%,0%);fill-opacity:1;" d="M 47.246094 48.039062 C 47.246094 48.039062 47.246094 47.617188 47.285156 46.730469 C 47.472656 32.691406 46.457031 19.390625 31.804688 16.496094 C 44.617188 24.59375 43.039062 35.699219 43.488281 48.039062 Z M 15.210938 38.097656 C 15.679688 37.871094 15.8125 38 16.285156 38.515625 C 15.636719 38.503906 13.113281 41.625 12.816406 41.425781 C 11.503906 40.535156 11.207031 42.585938 15.210938 38.097656 Z M 11.347656 33.953125 C 11.8125 33.597656 12.015625 34.273438 11.8125 34.945312 C 11.578125 35.332031 10.761719 35.910156 10.234375 36.101562 C 9.566406 36.359375 9.359375 36.035156 11.347656 33.953125 Z M 29.625 30.957031 C 31.84375 29.609375 34.699219 27.601562 33.382812 24.480469 C 33.007812 23.632812 31.804688 19.773438 30.753906 20.96875 C 32.488281 26.089844 32.390625 26.421875 29.289062 30.609375 M 19.964844 25.824219 C 20.007812 25.554688 21.09375 22.871094 21.4375 24.207031 C 21.464844 24.378906 20.859375 24.296875 20.785156 24.613281 C 22.574219 25.464844 23.667969 23.605469 22.828125 22.34375 C 23.289062 21.535156 24.550781 21.734375 25.003906 21.402344 C 25.195312 20.503906 23.601562 20.835938 23.140625 20.863281 C 19.222656 21.769531 19.078125 26.871094 19.964844 25.824219 Z M 19.964844 25.824219 "/>
</g>
</svg>
