<?xml version="1.0" encoding="UTF-8"?>
<svg xmlns="http://www.w3.org/2000/svg" xmlns:xlink="http://www.w3.org/1999/xlink" width="60px" height="60px" viewBox="0 0 60 60" version="1.1">
<defs>
<linearGradient id="linear0" gradientUnits="userSpaceOnUse" x1="4780.679199" y1="-1226.001953" x2="4780.553223" y2="-1102.789429" gradientTransform="matrix(0.26458,0,0,0.26458,-1239.854736,335.779694)">
<stop offset="0" style="stop-color:rgb(100%,100%,100%);stop-opacity:1;"/>
<stop offset="1" style="stop-color:rgb(86.274511%,86.274511%,86.274511%);stop-opacity:1;"/>
</linearGradient>
</defs>
<g id="surface1">
<path style="fill-rule:evenodd;fill:url(#linear0);stroke-width:0.8;stroke-linecap:round;stroke-linejoin:round;stroke:rgb(0%,0%,0%);stroke-opacity:1;stroke-miterlimit:4;" d="M 25.032552 11.39974 C 22.705078 11.432292 20.279948 12.877604 19.514974 15.195312 C 18.883464 17.008464 19.414062 19.156901 20.810547 20.465495 C 21.276042 20.934245 21.875 21.272786 22.373047 21.640625 C 18.284505 22.985026 17.220052 24.22526 17.220052 24.22526 L 17.122396 27.548828 L 21.344401 27.415365 C 23.935547 33.626302 12.766927 35.878906 12.399089 43.60026 L 37.600911 43.60026 C 37.26888 35.911458 26.064453 33.626302 28.655599 27.415365 L 32.877604 27.548828 L 32.779948 24.22526 C 32.779948 24.22526 31.715495 22.985026 27.626953 21.640625 C 28.157552 21.272786 28.75651 20.970052 29.189453 20.465495 C 30.585938 19.156901 31.116536 17.008464 30.485026 15.195312 C 29.788411 12.845052 27.360026 11.39974 25.032552 11.39974 Z M 25.032552 11.39974 " transform="matrix(1.2,0,0,1.2,0,0)"/>
</g>
</svg>
