<?xml version="1.0" encoding="UTF-8"?>
<svg xmlns="http://www.w3.org/2000/svg" xmlns:xlink="http://www.w3.org/1999/xlink" width="60px" height="60px" viewBox="0 0 60 60" version="1.1">
<defs>
<linearGradient id="linear0" gradientUnits="userSpaceOnUse" x1="2667.829102" y1="-154.400024" x2="2761.37085" y2="-154.400024" gradientTransform="matrix(0.7588,0,0,-0.7519,203.289902,163.847794)">
<stop offset="0" style="stop-color:rgb(18.82353%,18.82353%,18.82353%);stop-opacity:1;"/>
<stop offset="1" style="stop-color:rgb(11.764706%,11.764706%,11.764706%);stop-opacity:1;"/>
</linearGradient>
</defs>
<g id="surface1">
<path style="fill-rule:evenodd;fill:url(#linear0);stroke-width:1.341604;stroke-linecap:round;stroke-linejoin:round;stroke:rgb(0.392157%,0.392157%,0.392157%);stroke-opacity:1;stroke-miterlimit:4;" d="M 2714.600726 -210.300374 C 2710.198621 -210.300374 2707.901871 -207.50308 2707.901871 -203.899043 C 2707.901871 -201.496351 2708.302062 -199.198887 2711.103402 -198.199227 C 2709.702732 -194.998562 2707.701776 -192.402954 2705.596421 -189.903804 C 2700.202538 -182.800957 2694.704258 -175.69811 2689.597469 -168.297119 C 2685.699953 -162.29916 2681.69804 -155.897828 2680.097275 -147.997008 C 2679.40129 -144.296512 2679.601386 -140.096187 2681.297849 -136.90429 C 2683.899093 -132.002449 2688.101101 -129.398072 2692.198712 -127.503979 C 2693.70378 -126.802463 2695.295845 -126.197406 2696.89661 -125.697576 L 2695.295845 -121.102648 C 2697.096706 -120.295905 2698.897567 -119.603158 2700.802825 -119.103328 C 2701.899002 -118.796415 2702.89948 -118.498271 2703.899958 -118.296585 C 2703.099576 -116.902322 2702.299193 -115.595749 2701.298715 -114.701317 C 2701.203017 -114.596089 2701.098619 -114.596089 2701.002921 -114.499631 C 2692.598904 -113.701657 2679.89718 -121.602478 2668.500427 -109.09796 L 2673.998708 -98.496303 C 2674.703392 -99.303046 2675.599473 -99.899335 2676.800047 -100.302706 C 2688.396895 -104.397804 2703.499767 -91.498684 2712.704167 -105.002862 C 2713.49585 -106.002522 2714.096137 -107.703697 2714.600726 -110.299306 C 2715.096615 -107.800156 2715.696902 -106.09898 2716.401587 -105.195779 C 2729.5992 -89.595822 2741.900733 -107.502012 2755.202744 -98.601531 L 2760.701024 -109.203187 C 2753.297485 -118.901642 2741.996431 -112.59677 2732.696333 -112.701997 C 2731.104267 -113.298285 2729.5992 -113.999801 2728.102832 -115.095919 C 2727.198052 -116.104348 2726.397669 -117.296925 2725.701685 -118.603498 C 2726.597765 -118.796415 2727.398148 -119.103328 2728.302928 -119.296245 C 2730.399582 -119.901302 2732.200443 -120.602818 2733.896906 -121.304334 L 2732.400539 -125.802803 C 2735.802165 -126.898922 2739.099393 -128.301953 2742.196526 -130.301273 C 2745.502454 -132.502279 2748.799683 -136.001088 2749.695763 -141.201074 C 2750.600544 -146.401059 2749.199874 -151.80273 2747.303315 -156.099514 C 2745.102263 -159.703551 2744.597674 -161.597644 2742.300924 -165.403367 C 2739.003696 -170.901496 2734.401496 -177.1976 2734.401496 -177.1976 L 2727.502545 -185.799937 C 2727.502545 -185.799937 2723.996522 -190.201948 2722.395756 -192.59587 C 2721.099484 -194.402274 2719.603117 -196.401593 2718.498241 -198.602599 C 2721.099484 -199.698717 2721.29958 -201.803265 2721.29958 -204.197187 C 2721.203882 -207.50308 2719.00283 -210.300374 2714.600726 -210.300374 Z M 2714.600726 -210.300374 " transform="matrix(0.449004,0,0,0.445464,-1188.854883,98.7789)"/>
<path style=" stroke:none;fill-rule:evenodd;fill:rgb(82.352942%,82.352942%,82.352942%);fill-opacity:1;" d="M 37.082031 42.804688 L 35.953125 39.570312 C 34.144531 39.117188 32.15625 38.890625 29.988281 38.890625 C 27.816406 38.890625 25.875 39.117188 24.066406 39.570312 L 22.9375 42.757812 C 25.152344 42.121094 27.5 41.757812 29.988281 41.757812 C 32.472656 41.804688 34.824219 42.121094 37.082031 42.804688 Z M 37.082031 42.804688 "/>
<path style=" stroke:none;fill-rule:evenodd;fill:rgb(82.352942%,82.352942%,82.352942%);fill-opacity:1;" d="M 31.523438 8.019531 C 31.523438 8.902344 30.835938 9.613281 29.988281 9.613281 C 29.136719 9.613281 28.449219 8.902344 28.449219 8.019531 C 28.449219 7.140625 29.136719 6.429688 29.988281 6.429688 C 30.835938 6.429688 31.523438 7.140625 31.523438 8.019531 Z M 31.523438 8.019531 "/>
<path style=" stroke:none;fill-rule:evenodd;fill:rgb(82.352942%,82.352942%,82.352942%);fill-opacity:1;" d="M 29.957031 36.28125 C 29.640625 35.167969 26.226562 28.351562 25.464844 28.261719 C 24.792969 28.128906 24.117188 28.394531 23.757812 28.929688 C 23.488281 29.375 23.625 28.707031 23.578125 28.53125 C 23.625 27.59375 23.488281 26.4375 24.433594 25.855469 C 25.464844 25.054688 27.171875 25.410156 28.382812 25.855469 C 28.742188 25.632812 28.160156 24.921875 28.160156 24.519531 C 27.664062 23.230469 28.921875 21.9375 29.957031 21.136719 C 30.988281 21.9375 32.246094 23.230469 31.75 24.519531 C 31.75 24.921875 31.167969 25.632812 31.527344 25.855469 C 32.738281 25.410156 34.445312 25.054688 35.476562 25.855469 C 36.421875 26.4375 36.285156 27.59375 36.332031 28.53125 C 36.285156 28.707031 36.421875 29.375 36.152344 28.929688 C 35.792969 28.394531 35.117188 28.128906 34.445312 28.261719 C 33.683594 28.351562 30.269531 35.167969 29.957031 36.28125 "/>
</g>
</svg>
