<?xml version="1.0" encoding="UTF-8"?>
<svg xmlns="http://www.w3.org/2000/svg" xmlns:xlink="http://www.w3.org/1999/xlink" width="60px" height="60px" viewBox="0 0 60 60" version="1.1">
<defs>
<linearGradient id="linear0" gradientUnits="userSpaceOnUse" x1="2.5577" y1="25" x2="47.442001" y2="25" gradientTransform="matrix(0.7588,0,0,-0.7519,203.289993,163.850006)">
<stop offset="0" style="stop-color:rgb(18.82353%,18.82353%,18.82353%);stop-opacity:1;"/>
<stop offset="1" style="stop-color:rgb(11.764706%,11.764706%,11.764706%);stop-opacity:1;"/>
</linearGradient>
</defs>
<g id="surface1">
<path style="fill-rule:evenodd;fill:url(#linear0);stroke-width:0.53463;stroke-linecap:round;stroke-linejoin:round;stroke:rgb(0.392157%,0.392157%,0.392157%);stroke-opacity:1;stroke-miterlimit:4;" d="M 25.027884 2.798933 C 25.024406 2.802416 22.763192 5.379475 23.239786 7.012773 C 23.278053 7.475947 23.827702 8.360505 23.479823 8.660001 C 22.342258 8.141106 20.672439 7.684897 19.660111 8.684378 C 18.755626 9.443566 18.905213 10.895773 18.842595 12.048485 C 18.957395 13.932524 19.632281 11.30671 21.21513 11.724611 C 21.295142 11.735059 21.615191 12.462904 21.994379 13.382287 C 21.135118 13.747951 20.495021 14.381768 20.248027 15.499654 C 19.214826 15.65985 18.233807 15.8688 17.322364 16.126506 C 17.030146 16.008101 16.741406 15.886213 16.456145 15.764325 C 14.939393 15.245431 13.603537 14.956382 12.469452 14.879767 C 9.439425 14.747432 7.021666 15.732982 5.237047 17.819007 C 3.4733 19.911997 2.673178 22.015434 2.847118 24.118871 C 3.18456 28.242165 5.504913 31.787362 8.903692 33.814184 C 11.700639 35.255944 10.204759 38.773281 9.39768 42.691107 C 16.073478 48.701923 33.477866 48.667098 40.640695 42.795582 C 40.296295 38.195184 37.419335 35.715636 41.065107 33.786324 C 44.575207 31.352048 46.89556 27.987942 47.163427 24.091011 C 47.285184 21.987574 46.478105 19.884137 44.745667 17.791147 C 42.978442 15.68771 40.571119 14.702159 37.541093 14.851907 C 36.354825 14.928522 35.029406 15.228018 33.554399 15.764325 C 33.241308 15.879248 32.942132 15.997653 32.66035 16.109094 C 31.752386 15.85487 30.781803 15.649402 29.759039 15.496172 C 29.543354 14.468831 28.920651 13.841978 28.03008 13.458902 C 28.419705 12.501211 28.757147 11.735059 28.840638 11.724611 C 29.967766 11.324122 31.174907 13.444972 31.209695 12.048485 C 31.150555 10.895773 31.296664 9.443566 30.395658 8.684378 C 29.379851 7.684897 27.710032 8.141106 26.572467 8.660001 C 26.224588 8.360505 26.774237 7.475947 26.812504 7.012773 C 27.292577 5.379475 25.027884 2.798933 25.027884 2.798933 Z M 25.027884 2.798933 " transform="matrix(1.122876,0,0,1.121676,1.92804,1.95816)"/>
<path style=" stroke:none;fill-rule:evenodd;fill:rgb(82.352942%,82.352942%,82.352942%);fill-opacity:1;" d="M 45.648438 48.851562 L 44.753906 43.976562 C 40.839844 42.75 35.917969 42.128906 30 42.128906 C 24.140625 42.128906 19.242188 42.75 15.304688 43.976562 L 14.351562 48.890625 C 18.160156 47.300781 23.382812 46.5 30.027344 46.5 C 33.214844 46.5 36.183594 46.722656 38.90625 47.160156 C 41.640625 47.597656 43.890625 48.160156 45.644531 48.851562 Z M 30 20.359375 C 30 20.359375 30.175781 20.351562 30.445312 20.359375 C 31.257812 20.378906 32.921875 20.527344 33.238281 21.386719 C 33.808594 22.929688 31.929688 23.003906 32.996094 24.246094 C 35.289062 25.675781 39.828125 22.6875 43.855469 22.289062 C 46.574219 22.019531 49.058594 22.929688 50.464844 27.179688 C 51.253906 29.1875 50.523438 31.707031 49.480469 33.589844 C 48.253906 35.8125 43.191406 39.644531 43.191406 39.644531 C 45.445312 36.175781 48.925781 33.539062 48.964844 29.773438 C 48.984375 28.125 48.121094 26.066406 46.53125 25.40625 C 41.550781 24.207031 33.355469 27.074219 31.5625 30.570312 C 30.234375 33.230469 30 36.644531 30 36.644531 M 30 20.359375 C 30 20.359375 29.824219 20.351562 29.554688 20.359375 C 28.742188 20.378906 27.078125 20.527344 26.761719 21.386719 C 26.191406 22.929688 28.070312 23.003906 27.003906 24.246094 C 24.710938 25.671875 20.171875 22.6875 16.144531 22.289062 C 13.425781 22.019531 10.941406 22.929688 9.535156 27.179688 C 8.746094 29.1875 9.476562 31.707031 10.519531 33.589844 C 11.746094 35.8125 16.808594 39.644531 16.808594 39.644531 C 14.554688 36.171875 11.074219 33.539062 11.035156 29.773438 C 11.015625 28.125 11.878906 26.066406 13.46875 25.40625 C 18.449219 24.207031 26.644531 27.074219 28.4375 30.570312 C 29.765625 33.230469 30 36.644531 30 36.644531 "/>
</g>
</svg>
