<?xml version="1.0" encoding="UTF-8"?>
<svg xmlns="http://www.w3.org/2000/svg" xmlns:xlink="http://www.w3.org/1999/xlink" width="60px" height="60px" viewBox="0 0 60 60" version="1.1">
<defs>
<linearGradient id="linear0" gradientUnits="userSpaceOnUse" x1="2193.271729" y1="-162.941727" x2="2344.419922" y2="-162.941727" gradientTransform="matrix(0.7588,0,0,-0.7519,203.289902,163.847794)">
<stop offset="0" style="stop-color:rgb(18.82353%,18.82353%,18.82353%);stop-opacity:1;"/>
<stop offset="1" style="stop-color:rgb(11.764706%,11.764706%,11.764706%);stop-opacity:1;"/>
</linearGradient>
</defs>
<g id="surface1">
<path style="fill-rule:evenodd;fill:url(#linear0);stroke-width:1.856755;stroke-linecap:round;stroke-linejoin:miter;stroke:rgb(0.392157%,0.392157%,0.392157%);stroke-opacity:1;stroke-miterlimit:4;" d="M 2263.87252 -232.579451 C 2263.989669 -231.606518 2265.524316 -229.897649 2264.575412 -229.286448 C 2261.377255 -230.259381 2260.076905 -231.232314 2257.230194 -229.286448 C 2254.746644 -227.814576 2255.09809 -223.062173 2254.980941 -220.742103 C 2255.09809 -220.243163 2254.746644 -218.659029 2255.46125 -219.756697 C 2265.770328 -227.577579 2266.356071 -219.644435 2263.638223 -213.781892 C 2258.659407 -201.944544 2251.782784 -179.579565 2251.782784 -179.579565 L 2232.710991 -217.935566 C 2234.128489 -218.908499 2234.960244 -220.367898 2234.960244 -222.076767 C 2234.960244 -224.883304 2232.593842 -227.203374 2229.629982 -227.203374 C 2226.666123 -227.203374 2224.299721 -224.883304 2224.299721 -222.076767 C 2224.299721 -219.27023 2226.666123 -216.95016 2229.629982 -216.95016 C 2229.512834 -207.682352 2233.659895 -166.644549 2227.380729 -165.297411 C 2221.218712 -163.838012 2207.348317 -202.18154 2202.732662 -207.794614 C 2204.033012 -208.78002 2204.864767 -210.239419 2204.864767 -211.823553 C 2204.864767 -214.63009 2202.498365 -216.95016 2199.534505 -216.95016 C 2196.570646 -216.95016 2194.204244 -214.63009 2194.204244 -211.823553 C 2194.204244 -209.017016 2196.570646 -206.696946 2199.534505 -206.696946 L 2200.237397 -206.696946 C 2201.303449 -198.152601 2212.209985 -164.449213 2212.807442 -157.613737 C 2214.224941 -140.774517 2214.224941 -135.14897 2214.224941 -135.14897 C 2214.224941 -135.14897 2217.891692 -128.313494 2220.855552 -123.436357 C 2224.299721 -115.74021 2224.885464 -108.418267 2223.819412 -100.123392 C 2223.819412 -92.314983 2245.269321 -83.396433 2268.851336 -83.396433 C 2292.421636 -83.396433 2313.871546 -92.190248 2313.871546 -100.123392 C 2312.805493 -108.418267 2313.391236 -115.74021 2316.835405 -123.436357 C 2319.799265 -128.313494 2323.466017 -135.14897 2323.466017 -135.14897 C 2323.466017 -135.14897 2323.583165 -140.774517 2324.883515 -157.613737 C 2325.480973 -164.449213 2336.258644 -198.152601 2337.45356 -206.696946 L 2338.156452 -206.696946 C 2341.120312 -206.696946 2343.486713 -209.017016 2343.486713 -211.823553 C 2343.486713 -214.63009 2341.120312 -216.95016 2338.156452 -216.95016 C 2335.192592 -216.95016 2332.82619 -214.63009 2332.82619 -211.823553 C 2332.82619 -210.114684 2333.657945 -208.655285 2334.958295 -207.794614 C 2330.34264 -202.18154 2316.472245 -163.962747 2310.310228 -165.297411 C 2304.031063 -166.769284 2308.178123 -207.682352 2308.060975 -216.95016 C 2311.024835 -216.95016 2313.391236 -219.27023 2313.391236 -222.076767 C 2313.391236 -224.883304 2311.024835 -227.203374 2308.060975 -227.203374 C 2305.097115 -227.203374 2302.730713 -224.883304 2302.730713 -222.076767 C 2302.730713 -220.367898 2303.679617 -218.908499 2304.979966 -217.935566 L 2285.908173 -179.579565 C 2285.908173 -179.579565 2279.148699 -202.056805 2274.064449 -213.781892 C 2271.217738 -219.644435 2271.92063 -227.452844 2282.229707 -219.756697 C 2282.944313 -218.659029 2282.592868 -220.243163 2282.710016 -220.742103 C 2282.592868 -223.062173 2282.944313 -227.689841 2280.460763 -229.286448 C 2277.614052 -231.232314 2276.313702 -230.384116 2273.115545 -229.286448 C 2272.166642 -229.897649 2273.701288 -231.606518 2273.818437 -232.579451 C 2275.130501 -235.747719 2268.851336 -242.096729 2268.851336 -242.096729 C 2268.851336 -242.096729 2262.560456 -235.872454 2263.87252 -232.579451 Z M 2263.87252 -232.579451 " transform="matrix(0.333444,0,0,0.313164,-726.53877,81.026917)"/>
<path style=" stroke:none;fill-rule:evenodd;fill:rgb(82.352942%,82.352942%,82.352942%);fill-opacity:1;" d="M 18.207031 40.097656 L 13.191406 31.425781 C 13.191406 31.425781 17.613281 34.027344 18.878906 33.480469 C 20.617188 32.742188 21.171875 28.183594 21.171875 28.183594 C 21.171875 28.183594 24.253906 30.6875 26.070312 30.175781 C 28.242188 29.597656 29.980469 24.011719 29.980469 24.011719 C 29.980469 24.011719 31.523438 29.402344 33.496094 29.980469 C 35.355469 30.558594 38.792969 28.214844 38.792969 28.214844 C 38.792969 28.214844 39.820312 32.328125 41.242188 33 C 42.464844 33.578125 46.851562 31.394531 46.851562 31.394531 L 41.753906 40.097656 L 43.257812 34.734375 C 43.257812 34.734375 40.332031 35.570312 39.265625 34.992188 C 38.476562 34.574219 38.277344 32.613281 38.277344 32.613281 C 38.277344 32.613281 34.605469 33.515625 32.945312 33.03125 C 31.71875 32.679688 30.058594 30.59375 30.058594 30.59375 C 30.058594 30.59375 28.203125 32.808594 26.859375 33.160156 C 25.28125 33.578125 21.84375 32.582031 21.84375 32.582031 C 21.84375 32.582031 21.84375 34.832031 20.933594 35.3125 C 19.828125 35.890625 16.824219 35.25 16.824219 35.25 Z M 42.542969 49.183594 L 42.5 45.363281 C 39.339844 44.398438 34.6875 43.917969 29.902344 43.917969 C 25.160156 43.917969 20.511719 44.398438 17.351562 45.363281 L 17.257812 49.214844 C 20.328125 47.964844 24.574219 47.355469 29.945312 47.355469 C 32.519531 47.355469 34.914062 47.546875 37.125 47.867188 C 39.339844 48.1875 41.144531 48.636719 42.542969 49.183594 Z M 42.542969 49.183594 "/>
</g>
</svg>
