<?xml version="1.0" encoding="UTF-8"?>
<svg xmlns="http://www.w3.org/2000/svg" xmlns:xlink="http://www.w3.org/1999/xlink" width="60px" height="60px" viewBox="0 0 60 60" version="1.1">
<defs>
<linearGradient id="linear0" gradientUnits="userSpaceOnUse" x1="2811.571045" y1="-156.127869" x2="2904.651367" y2="-156.127869" gradientTransform="matrix(0.7588,0,0,-0.7519,203.289902,163.847794)">
<stop offset="0" style="stop-color:rgb(18.82353%,18.82353%,18.82353%);stop-opacity:1;"/>
<stop offset="1" style="stop-color:rgb(11.764706%,11.764706%,11.764706%);stop-opacity:1;"/>
</linearGradient>
</defs>
<g id="surface1">
<path style="fill-rule:evenodd;fill:url(#linear0);stroke-width:1.301434;stroke-linecap:round;stroke-linejoin:round;stroke:rgb(0.392157%,0.392157%,0.392157%);stroke-opacity:1;stroke-miterlimit:4;" d="M 2867.720557 -211.035009 L 2858.622352 -210.973643 L 2849.409499 -210.973643 C 2849.409499 -210.973643 2849.753445 -205.704925 2848.050091 -204.293505 C 2845.314897 -202.189525 2840.540592 -202.189525 2837.813587 -204.293505 C 2836.102043 -205.704925 2836.44599 -210.973643 2836.44599 -210.973643 L 2821.770938 -210.973643 L 2821.770938 -190.93323 C 2823.138535 -188.82925 2824.841889 -187.768493 2826.553433 -186.716503 C 2827.233136 -186.015176 2826.88919 -184.954419 2826.88919 -184.253092 L 2826.88919 -178.633711 C 2828.936491 -178.633711 2839.516941 -177.222291 2839.516941 -177.222291 L 2834.054743 -126.244601 C 2834.054743 -126.244601 2822.114884 -125.543274 2818.020283 -121.668444 C 2817.684525 -119.915127 2818.020283 -111.122242 2818.020283 -109.368925 L 2812.222327 -109.368925 L 2812.222327 -100.225377 L 2903.998727 -100.225377 L 2903.998727 -109.368925 C 2902.975077 -109.719589 2899.224422 -109.368925 2898.200771 -109.368925 L 2898.200771 -121.668444 C 2893.762223 -125.543274 2883.189962 -126.244601 2883.189962 -126.244601 L 2877.727763 -177.572955 C 2877.727763 -177.572955 2888.308214 -178.984375 2890.355515 -178.984375 C 2890.691272 -180.737692 2890.355515 -182.850439 2890.355515 -184.603756 C 2890.355515 -185.313849 2890.011568 -186.365839 2890.691272 -187.067166 C 2892.402815 -188.119156 2894.450116 -189.179913 2895.473767 -191.283893 L 2895.473767 -210.973643 L 2880.798714 -210.973643 C 2880.798714 -210.973643 2880.94612 -206.265987 2879.439307 -205.003598 C 2876.753248 -202.74182 2871.90524 -202.768119 2869.202803 -205.003598 C 2867.663233 -206.265987 2867.720557 -211.035009 2867.720557 -211.035009 Z M 2867.720557 -211.035009 " transform="matrix(0.477,0,0,0.445584,-1333.332422,99.568982)"/>
<path style=" stroke:none;fill-rule:evenodd;fill:rgb(82.352942%,82.352942%,82.352942%);fill-opacity:1;" d="M 30.265625 15.726562 L 24.292969 15.726562 L 24.292969 17.097656 L 25.199219 18.804688 L 35.511719 18.804688 L 36.414062 17.097656 L 36.414062 15.726562 Z M 23.207031 25.136719 L 37.5 25.136719 L 37.5 28.214844 L 23.207031 28.214844 Z M 17.945312 47.425781 L 42.808594 47.425781 L 42.808594 50.496094 L 17.945312 50.496094 Z M 17.945312 47.425781 "/>
</g>
</svg>
