<?xml version="1.0" encoding="UTF-8"?>
<svg xmlns="http://www.w3.org/2000/svg" xmlns:xlink="http://www.w3.org/1999/xlink" width="60px" height="60px" viewBox="0 0 60 60" version="1.1">
<defs>
<linearGradient id="linear0" gradientUnits="userSpaceOnUse" x1="2667.800049" y1="-154.399994" x2="2761.399902" y2="-154.399994" gradientTransform="matrix(1,0,0,1,0.000000000000454747,0.000000000000028422)">
<stop offset="0" style="stop-color:rgb(100%,100%,100%);stop-opacity:1;"/>
<stop offset="1" style="stop-color:rgb(70.588237%,70.588237%,70.588237%);stop-opacity:1;"/>
</linearGradient>
</defs>
<g id="surface1">
<path style="fill-rule:evenodd;fill:url(#linear0);stroke-width:1.3416;stroke-linecap:round;stroke-linejoin:round;stroke:rgb(0.392157%,0.392157%,0.392157%);stroke-opacity:1;stroke-miterlimit:4;" d="M 2714.603064 -210.301052 C 2710.200959 -210.301052 2707.904209 -207.503758 2707.904209 -203.899721 C 2707.904209 -201.49703 2708.295701 -199.199566 2711.09704 -198.199906 C 2709.69637 -194.99924 2707.704114 -192.403632 2705.598759 -189.895713 C 2700.196177 -182.801635 2694.697896 -175.698788 2689.599807 -168.297797 C 2685.702292 -162.299838 2681.700378 -155.898507 2680.099613 -147.997686 C 2679.403628 -144.29719 2679.603724 -140.096865 2681.300187 -136.896199 C 2683.901431 -132.003127 2688.103439 -129.39875 2692.20105 -127.495888 C 2693.697418 -126.803142 2695.298183 -126.198084 2696.898948 -125.698254 L 2695.298183 -121.103326 C 2697.099044 -120.296583 2698.899905 -119.603836 2700.796464 -119.104006 C 2701.90134 -118.797093 2702.901818 -118.498949 2703.902296 -118.297263 C 2703.101914 -116.903001 2702.301531 -115.596428 2701.301053 -114.701995 C 2701.196655 -114.596768 2701.100957 -114.596768 2700.996559 -114.500309 C 2692.601242 -113.702335 2679.899518 -121.603156 2668.502765 -109.098638 L 2674.001046 -98.496982 C 2674.697031 -99.303725 2675.601811 -99.900013 2676.802385 -100.303385 C 2688.399233 -104.398483 2703.502105 -91.499362 2712.697805 -105.00354 C 2713.498188 -106.0032 2714.098475 -107.704376 2714.603064 -110.299984 C 2715.098953 -107.800834 2715.69924 -106.099658 2716.403925 -105.196457 C 2729.601538 -89.596501 2741.903071 -107.50269 2755.196382 -98.602209 L 2760.703362 -109.203865 C 2753.299823 -118.902321 2741.998769 -112.597448 2732.698671 -112.702675 C 2731.097905 -113.298964 2729.601538 -114.000479 2728.096471 -115.096598 C 2727.20039 -116.096258 2726.400007 -117.297603 2725.704023 -118.604176 C 2726.600103 -118.797093 2727.400486 -119.104006 2728.296566 -119.296923 C 2730.401921 -119.90198 2732.202781 -120.603496 2733.899245 -121.296243 L 2732.402877 -125.803482 C 2735.795803 -126.8996 2739.101732 -128.302631 2742.198864 -130.301951 C 2745.496093 -132.502957 2748.802021 -136.001767 2749.698101 -141.201752 C 2750.602882 -146.401737 2749.202212 -151.803409 2747.296954 -156.100192 C 2745.095901 -159.70423 2744.600012 -161.598322 2742.303262 -165.404045 C 2738.997334 -170.902175 2734.403834 -177.198278 2734.403834 -177.198278 L 2727.496184 -185.800615 C 2727.496184 -185.800615 2723.99886 -190.202626 2722.398094 -192.596549 C 2721.101823 -194.402952 2719.596755 -196.402272 2718.500579 -198.603277 C 2721.101823 -199.699396 2721.301918 -201.803943 2721.301918 -204.197865 C 2721.19752 -207.503758 2718.996468 -210.301052 2714.603064 -210.301052 Z M 2714.603064 -210.301052 " transform="matrix(0.449004,0,0,0.445464,-1188.852026,98.779202)"/>
<path style=" stroke:none;fill-rule:evenodd;fill:rgb(21.568628%,21.568628%,21.568628%);fill-opacity:1;" d="M 37.085938 42.796875 L 35.957031 39.566406 C 34.148438 39.109375 32.160156 38.882812 29.988281 38.882812 C 27.820312 38.882812 25.875 39.109375 24.066406 39.566406 L 22.9375 42.753906 C 25.152344 42.117188 27.503906 41.75 29.988281 41.75 C 32.476562 41.796875 34.824219 42.117188 37.085938 42.796875 Z M 37.085938 42.796875 "/>
<path style=" stroke:none;fill-rule:evenodd;fill:rgb(21.568628%,21.568628%,21.568628%);fill-opacity:1;" d="M 31.527344 8.015625 C 31.527344 8.894531 30.835938 9.609375 29.988281 9.609375 C 29.140625 9.609375 28.453125 8.894531 28.453125 8.015625 C 28.453125 7.136719 29.140625 6.421875 29.988281 6.421875 C 30.835938 6.421875 31.527344 7.136719 31.527344 8.015625 Z M 31.527344 8.015625 "/>
<path style=" stroke:none;fill-rule:evenodd;fill:rgb(21.568628%,21.568628%,21.568628%);fill-opacity:1;" d="M 29.96875 36.28125 C 29.65625 35.167969 26.242188 28.351562 25.480469 28.261719 C 24.804688 28.128906 24.132812 28.394531 23.773438 28.929688 C 23.503906 29.375 23.636719 28.707031 23.59375 28.53125 C 23.636719 27.59375 23.503906 26.4375 24.445312 25.855469 C 25.480469 25.054688 27.183594 25.410156 28.398438 25.855469 C 28.757812 25.632812 28.171875 24.921875 28.171875 24.519531 C 27.679688 23.226562 28.9375 21.9375 29.96875 21.136719 C 31.003906 21.9375 32.257812 23.226562 31.765625 24.519531 C 31.765625 24.921875 31.183594 25.632812 31.539062 25.855469 C 32.753906 25.410156 34.460938 25.054688 35.492188 25.855469 C 36.433594 26.4375 36.300781 27.59375 36.34375 28.53125 C 36.300781 28.707031 36.433594 29.375 36.164062 28.929688 C 35.804688 28.394531 35.132812 28.128906 34.460938 28.261719 C 33.695312 28.351562 30.285156 35.167969 29.96875 36.28125 "/>
</g>
</svg>
