<?xml version="1.0" encoding="UTF-8"?>
<svg xmlns="http://www.w3.org/2000/svg" xmlns:xlink="http://www.w3.org/1999/xlink" width="60px" height="60px" viewBox="0 0 60 60" version="1.1">
<defs>
<linearGradient id="linear0" gradientUnits="userSpaceOnUse" x1="37.769001" y1="-632.669983" x2="75.594002" y2="-632.669983" >
<stop offset="0" style="stop-color:rgb(100%,100%,100%);stop-opacity:1;"/>
<stop offset="1" style="stop-color:rgb(70.588237%,70.588237%,70.588237%);stop-opacity:1;"/>
</linearGradient>
</defs>
<g id="surface1">
<path style="fill-rule:evenodd;fill:url(#linear0);stroke-width:0.47941;stroke-linecap:round;stroke-linejoin:round;stroke:rgb(0.392157%,0.392157%,0.392157%);stroke-opacity:1;stroke-miterlimit:4;" d="M 50.961493 -652.851038 C 50.133455 -652.87952 49.363902 -652.426968 48.819058 -651.778205 C 48.569723 -651.490218 49.148427 -651.199065 49.24693 -650.920572 C 49.65941 -650.316115 50.191941 -649.743304 50.392024 -649.012259 C 49.653254 -648.202096 48.714399 -647.619792 47.88636 -646.920394 C 46.959819 -646.126054 45.857819 -645.360197 45.429948 -644.113306 C 45.276037 -643.717719 45.433026 -643.205038 45.032859 -642.955027 C 42.945832 -640.628974 40.788006 -638.369379 38.771777 -635.970538 C 38.574772 -635.229999 38.83642 -634.347048 38.325437 -633.707779 C 37.746733 -632.824828 38.045319 -631.644396 38.590163 -630.831069 C 38.996487 -630.217117 39.307386 -629.957612 39.916872 -629.568354 C 42.924284 -633.932473 45.334523 -630.739292 41.446743 -628.77718 C 42.400988 -628.653756 43.401407 -628.498686 44.346418 -628.774015 C 45.014389 -629.156943 45.457652 -629.865836 46.014808 -630.40067 C 46.799752 -631.251974 47.630869 -632.23303 48.806746 -632.381771 C 50.379712 -632.647605 52.13737 -632.75204 53.39328 -633.951461 C 53.987375 -634.419836 54.399855 -635.147717 55.064749 -635.498998 C 55.708095 -635.69521 56.148279 -635.011635 56.471491 -634.527436 C 57.228731 -633.359662 57.376486 -631.628573 56.440709 -630.517764 C 55.800441 -629.802542 54.849274 -629.444931 54.048939 -628.938579 C 50.939946 -627.163184 47.713981 -625.485894 45.057484 -622.960465 C 43.543005 -621.48888 42.231687 -619.479297 42.280938 -617.19755 C 42.336346 -615.919012 42.542586 -614.574015 43.210558 -613.485359 C 43.493753 -613.083442 43.863138 -612.68469 44.294088 -612.501138 C 51.46632 -612.507467 58.64163 -612.491644 65.810784 -612.507467 C 75.774954 -618.251394 77.62188 -632.014666 72.813715 -642.401205 C 71.052978 -646.081749 68.245649 -649.252776 64.702628 -650.958548 C 62.123087 -652.262404 59.22649 -652.77825 56.391458 -652.620015 C 55.295615 -652.404815 54.162833 -652.154804 53.079303 -652.537733 C 52.386705 -652.711791 51.678717 -652.863696 50.961493 -652.851038 Z M 50.961493 -652.851038 " transform="matrix(1.269,0,0,1.23432,-41.927948,810.916919)"/>
<path style=" stroke:none;fill-rule:evenodd;fill:rgb(21.568628%,21.568628%,21.568628%);fill-opacity:1;" d="M 17.96875 18.527344 C 18.148438 19.171875 18.757812 19.855469 19.550781 19.574219 C 20.691406 19.375 20.910156 18.503906 21.691406 17.777344 C 22.140625 17.171875 21.550781 17.332031 21.191406 17.132812 C 20.324219 16.910156 19.269531 16.996094 18.667969 17.6875 C 18.410156 17.949219 18.195312 18.242188 17.96875 18.527344 Z M 9.078125 26.691406 C 9.433594 27.003906 8.730469 27.914062 8.699219 28.347656 C 8.589844 28.679688 8.523438 29.445312 8.085938 29.355469 C 7.679688 28.515625 8.332031 26.867188 9.078125 26.691406 Z M 9.078125 26.691406 "/>
<path style=" stroke:none;fill-rule:evenodd;fill:rgb(21.568628%,21.568628%,21.568628%);fill-opacity:1;" d="M 16.039062 18.160156 C 17.253906 15.796875 19.679688 14.816406 21.890625 14.714844 C 23.125 14.351562 25.507812 16.316406 23.632812 17.304688 C 19.777344 14.726562 17.835938 16.753906 17.085938 17.773438 C 16.875 17.953125 15.328125 19.550781 16.039062 18.160156 Z M 26.894531 20.371094 C 27.074219 24.640625 26.105469 25.003906 24.21875 27.011719 C 24.054688 27.183594 23.855469 27.75 24.261719 27.546875 C 25.164062 27.171875 26 26.617188 26.84375 26.097656 C 27.238281 25.824219 27.664062 25.601562 28.03125 25.28125 C 29.003906 24.316406 29.089844 22.339844 28.121094 21.332031 C 27.984375 21.195312 27.074219 20.421875 26.894531 20.371094 Z M 36.675781 15.625 C 36.742188 15.828125 35.949219 15.136719 39.683594 16.105469 C 58.191406 24.929688 35.894531 47.535156 35.894531 47.535156 C 34.4375 47.535156 28.894531 47.53125 28.894531 47.53125 C 39.15625 36.550781 49.15625 25.210938 36.675781 15.625 Z M 36.675781 15.625 "/>
</g>
</svg>
