<?xml version="1.0" encoding="UTF-8"?>
<svg xmlns="http://www.w3.org/2000/svg" xmlns:xlink="http://www.w3.org/1999/xlink" width="60px" height="60px" viewBox="0 0 60 60" version="1.1">
<defs>
<linearGradient id="linear0" gradientUnits="userSpaceOnUse" x1="-296.779999" y1="-718.349976" x2="-277.220001" y2="-718.349976" gradientTransform="matrix(1,0,0,1,0.000000000000056843,0)">
<stop offset="0" style="stop-color:rgb(100%,100%,100%);stop-opacity:1;"/>
<stop offset="1" style="stop-color:rgb(70.588237%,70.588237%,70.588237%);stop-opacity:1;"/>
</linearGradient>
</defs>
<g id="surface1">
<path style="fill-rule:evenodd;fill:url(#linear0);stroke-width:0.36061;stroke-linecap:round;stroke-linejoin:round;stroke:rgb(0.392157%,0.392157%,0.392157%);stroke-opacity:1;stroke-miterlimit:4;" d="M -286.999486 -731.198961 C -288.800482 -731.198961 -290.599203 -730.100964 -291.199535 -728.300056 C -291.699811 -726.89908 -291.29959 -725.29935 -290.198982 -724.300731 C -289.90109 -723.900799 -289.400813 -723.69962 -289.000592 -723.399065 C -292.100033 -722.400446 -293.300696 -721.399403 -293.300696 -721.399403 L -292.200088 -718.90043 C -292.200088 -718.90043 -289.998871 -719.700295 -289.801035 -718.999808 C -287.799928 -714.299995 -296.300082 -711.299289 -296.600247 -705.499056 L -277.400999 -705.499056 C -277.698891 -711.40109 -286.098988 -714.299995 -284.200211 -718.999808 C -283.900046 -719.700295 -281.798884 -718.90043 -281.798884 -718.90043 L -280.70055 -721.399403 C -280.70055 -721.399403 -281.898939 -722.301069 -285.000654 -723.399065 C -284.600433 -723.69962 -284.100156 -723.900799 -283.79999 -724.300731 C -282.699382 -725.29935 -282.299161 -726.89908 -282.799437 -728.300056 C -283.399769 -730.100964 -285.200764 -731.198961 -286.999486 -731.198961 Z M -286.999486 -731.198961 " transform="matrix(1.7178,0,0,1.6116,522.995984,1191.912012)"/>
</g>
</svg>
