<?xml version="1.0" encoding="UTF-8"?>
<svg xmlns="http://www.w3.org/2000/svg" xmlns:xlink="http://www.w3.org/1999/xlink" width="60px" height="60px" viewBox="0 0 60 60" version="1.1">
<defs>
<linearGradient id="linear0" gradientUnits="userSpaceOnUse" x1="2193.300049" y1="-162.940002" x2="2344.399902" y2="-162.940002" >
<stop offset="0" style="stop-color:rgb(100%,100%,100%);stop-opacity:1;"/>
<stop offset="1" style="stop-color:rgb(70.588237%,70.588237%,70.588237%);stop-opacity:1;"/>
</linearGradient>
</defs>
<g id="surface1">
<path style="fill-rule:evenodd;fill:url(#linear0);stroke-width:1.8568;stroke-linecap:round;stroke-linejoin:miter;stroke:rgb(0.392157%,0.392157%,0.392157%);stroke-opacity:1;stroke-miterlimit:4;" d="M 2263.899684 -232.577814 C 2264.016833 -231.604881 2265.563194 -229.896012 2264.614291 -229.284811 C 2261.416134 -230.257744 2260.104069 -231.24315 2257.269073 -229.284811 C 2254.773808 -227.825412 2255.136968 -223.060536 2255.008105 -220.740466 C 2255.136968 -220.253999 2254.773808 -218.669865 2255.488414 -219.767533 C 2265.797492 -227.575942 2266.383235 -219.642798 2263.665387 -213.780255 C 2258.686571 -201.942907 2251.809948 -179.590401 2251.809948 -179.590401 L 2232.738155 -217.933929 C 2234.155653 -218.906862 2234.987408 -220.378734 2234.987408 -222.087603 C 2234.987408 -224.89414 2232.621006 -227.214211 2229.657146 -227.214211 C 2226.693287 -227.214211 2224.326885 -224.89414 2224.326885 -222.087603 C 2224.326885 -219.281067 2226.693287 -216.960996 2229.657146 -216.960996 C 2229.539998 -207.680715 2233.687058 -166.642912 2227.407893 -165.308247 C 2221.245876 -163.836375 2207.387196 -202.179903 2202.759826 -207.80545 C 2204.060176 -208.778383 2204.891931 -210.237782 2204.891931 -211.834389 C 2204.891931 -214.640926 2202.525529 -216.960996 2199.561669 -216.960996 C 2196.597809 -216.960996 2194.231408 -214.640926 2194.231408 -211.834389 C 2194.231408 -209.027853 2196.597809 -206.707782 2199.561669 -206.707782 L 2200.276276 -206.707782 C 2201.342328 -198.163437 2212.237148 -164.447576 2212.834606 -157.6121 C 2214.252104 -140.77288 2214.252104 -135.159806 2214.252104 -135.159806 C 2214.252104 -135.159806 2217.930571 -128.32433 2220.89443 -123.43472 C 2224.326885 -115.751046 2224.924343 -108.429104 2223.85829 -100.121755 C 2223.85829 -92.313346 2245.296485 -83.40727 2268.8785 -83.40727 C 2292.460514 -83.40727 2313.898709 -92.188611 2313.898709 -100.121755 C 2312.832657 -108.429104 2313.430115 -115.751046 2316.862569 -123.43472 C 2319.826429 -128.32433 2323.49318 -135.159806 2323.49318 -135.159806 C 2323.49318 -135.159806 2323.622044 -140.77288 2324.922393 -157.6121 C 2325.508136 -164.447576 2336.297523 -198.163437 2337.480724 -206.707782 L 2338.195331 -206.707782 C 2341.147475 -206.707782 2343.525592 -209.027853 2343.525592 -211.834389 C 2343.525592 -214.640926 2341.147475 -216.960996 2338.195331 -216.960996 C 2335.231471 -216.960996 2332.865069 -214.640926 2332.865069 -211.834389 C 2332.865069 -210.12552 2333.685109 -208.653648 2334.997174 -207.80545 C 2330.369804 -202.192377 2316.511123 -163.96111 2310.349107 -165.308247 C 2304.069941 -166.767647 2308.217002 -207.680715 2308.099853 -216.960996 C 2311.063713 -216.960996 2313.430115 -219.281067 2313.430115 -222.087603 C 2313.430115 -224.89414 2311.063713 -227.214211 2308.099853 -227.214211 C 2305.135994 -227.214211 2302.769592 -224.89414 2302.769592 -222.087603 C 2302.769592 -220.378734 2303.706781 -218.906862 2305.018845 -217.933929 L 2285.935337 -179.590401 C 2285.935337 -179.590401 2279.187577 -202.067642 2274.091613 -213.780255 C 2271.244902 -219.642798 2271.959508 -227.451207 2282.268586 -219.767533 C 2282.983192 -218.669865 2282.620031 -220.253999 2282.73718 -220.740466 C 2282.620031 -223.060536 2282.983192 -227.700677 2280.487927 -229.284811 C 2277.641216 -231.24315 2276.340866 -230.382479 2273.142709 -229.284811 C 2272.193805 -229.896012 2273.740167 -231.604881 2273.857316 -232.577814 C 2275.157665 -235.758556 2268.8785 -242.095092 2268.8785 -242.095092 C 2268.8785 -242.095092 2262.599335 -235.870817 2263.899684 -232.577814 Z M 2263.899684 -232.577814 " transform="matrix(0.333444,0,0,0.313164,-726.540015,81.026404)"/>
<path style=" stroke:none;fill-rule:evenodd;fill:rgb(21.568628%,21.568628%,21.568628%);fill-opacity:1;" d="M 18.234375 40.089844 L 13.21875 31.421875 C 13.21875 31.421875 17.640625 34.023438 18.90625 33.476562 C 20.644531 32.738281 21.199219 28.179688 21.199219 28.179688 C 21.199219 28.179688 24.28125 30.683594 26.097656 30.167969 C 28.269531 29.589844 30.007812 24.003906 30.007812 24.003906 C 30.007812 24.003906 31.550781 29.398438 33.523438 29.976562 C 35.382812 30.554688 38.820312 28.210938 38.820312 28.210938 C 38.820312 28.210938 39.847656 32.320312 41.269531 32.996094 C 42.492188 33.574219 46.878906 31.390625 46.878906 31.390625 L 41.78125 40.089844 L 43.285156 34.730469 C 43.285156 34.730469 40.359375 35.5625 39.292969 34.984375 C 38.503906 34.566406 38.304688 32.609375 38.304688 32.609375 C 38.304688 32.609375 34.632812 33.507812 32.972656 33.027344 C 31.746094 32.671875 30.085938 30.585938 30.085938 30.585938 C 30.085938 30.585938 28.230469 32.800781 26.886719 33.15625 C 25.308594 33.574219 21.871094 32.578125 21.871094 32.578125 C 21.871094 32.578125 21.871094 34.824219 20.960938 35.304688 C 19.855469 35.882812 16.851562 35.242188 16.851562 35.242188 Z M 42.574219 49.175781 L 42.527344 45.355469 C 39.367188 44.394531 34.714844 43.910156 29.929688 43.910156 C 25.1875 43.910156 20.539062 44.394531 17.375 45.355469 L 17.285156 49.210938 C 20.355469 47.957031 24.601562 47.347656 29.976562 47.347656 C 32.546875 47.347656 34.941406 47.539062 37.152344 47.859375 C 39.367188 48.183594 41.171875 48.632812 42.574219 49.175781 Z M 42.574219 49.175781 "/>
</g>
</svg>
