<?xml version="1.0" encoding="UTF-8"?>
<svg xmlns="http://www.w3.org/2000/svg" xmlns:xlink="http://www.w3.org/1999/xlink" width="60px" height="60px" viewBox="0 0 60 60" version="1.1">
<defs>
<linearGradient id="linear0" gradientUnits="userSpaceOnUse" x1="2811.600098" y1="-156.130005" x2="2904.699951" y2="-156.130005" >
<stop offset="0" style="stop-color:rgb(100%,100%,100%);stop-opacity:1;"/>
<stop offset="1" style="stop-color:rgb(70.588237%,70.588237%,70.588237%);stop-opacity:1;"/>
</linearGradient>
</defs>
<g id="surface1">
<path style="fill-rule:evenodd;fill:url(#linear0);stroke-width:1.3014;stroke-linecap:round;stroke-linejoin:round;stroke:rgb(0.392157%,0.392157%,0.392157%);stroke-opacity:1;stroke-miterlimit:4;" d="M 2867.800913 -210.981998 L 2849.375206 -210.981998 C 2849.375206 -210.981998 2849.719153 -205.704514 2848.007609 -204.301861 C 2845.280605 -202.189114 2840.506299 -202.189114 2837.779295 -204.301861 C 2836.067751 -205.704514 2836.411698 -210.981998 2836.411698 -210.981998 L 2821.736646 -210.981998 L 2821.736646 -190.941586 C 2823.104243 -188.828839 2824.807597 -187.776848 2826.51914 -186.716092 C 2827.198844 -186.014765 2826.854898 -184.962775 2826.854898 -184.261448 L 2826.854898 -178.633301 C 2828.902198 -178.633301 2839.482649 -177.230647 2839.482649 -177.230647 L 2834.02045 -126.24419 C 2834.02045 -126.24419 2822.080592 -125.542863 2817.985991 -121.676799 C 2817.642044 -119.914716 2817.985991 -111.121831 2817.985991 -109.368514 L 2812.188035 -109.368514 L 2812.188035 -100.224966 L 2903.964435 -100.224966 L 2903.964435 -109.368514 C 2902.940784 -109.719178 2899.190129 -109.368514 2898.166479 -109.368514 L 2898.166479 -121.676799 C 2893.727931 -125.542863 2883.155669 -126.24419 2883.155669 -126.24419 L 2877.693471 -177.58131 C 2877.693471 -177.58131 2888.273921 -178.983964 2890.321222 -178.983964 C 2890.65698 -180.746047 2890.321222 -182.850028 2890.321222 -184.612111 C 2890.321222 -185.313438 2889.977276 -186.365428 2890.65698 -187.066755 C 2892.368523 -188.127512 2894.415824 -189.179502 2895.439474 -191.292249 L 2895.439474 -210.981998 L 2880.764422 -210.981998 C 2880.764422 -210.981998 2881.108369 -206.405841 2879.396825 -205.003188 C 2876.669821 -202.890441 2871.895515 -202.890441 2869.160321 -205.003188 C 2867.456967 -206.756504 2867.800913 -210.981998 2867.800913 -210.981998 Z M 2867.800913 -210.981998 " transform="matrix(0.477,0,0,0.445584,-1333.319971,99.568799)"/>
<path style=" stroke:none;fill-rule:evenodd;fill:rgb(21.568628%,21.568628%,21.568628%);fill-opacity:1;" d="M 30.28125 15.726562 L 24.308594 15.726562 L 24.308594 17.097656 L 25.214844 18.808594 L 35.527344 18.808594 L 36.429688 17.097656 L 36.429688 15.726562 Z M 23.21875 25.132812 L 37.511719 25.132812 L 37.511719 28.214844 L 23.21875 28.214844 Z M 17.925781 47.425781 L 42.789062 47.425781 L 42.789062 50.496094 L 17.925781 50.496094 Z M 17.925781 47.425781 "/>
</g>
</svg>
