<?xml version="1.0" encoding="utf-8" ?><svg xmlns="http://www.w3.org/2000/svg" xmlns:xlink="http://www.w3.org/1999/xlink" width="512" height="512" viewBox="0 0 512 512"><path fill="#4B4B4B" d="M107.946 0L122.979 0L138.046 0L138.107 27.8386C146.142 27.5335 154.209 28.0056 162.236 27.6257C162.271 37.6857 162.083 47.7671 162.256 57.8231C154.235 57.2325 146.017 58.349 138.051 57.5531L138.061 76.4172C138.058 80.0185 137.792 83.9132 138.325 87.4703C151.986 80.1822 168.012 78.7258 182.762 83.4321C197.287 88.0554 209.38 98.2629 216.375 111.806C222.784 124.255 222.785 134.892 222.797 148.384C222.799 151.526 223.244 155.275 222.624 158.346C212.064 171.255 201.93 184.557 191.594 197.65L181.636 210.245C179.881 212.461 177.793 214.724 176.366 217.153L176.357 244.092C176.354 246.879 175.907 252.661 176.467 255.154C187.284 255 198.262 255.572 209.051 254.923C208.706 261.981 208.917 269.122 208.939 276.19C208.948 278.999 209.33 282.291 208.817 285.027C201.773 285.201 194.7 285.08 187.651 285.098C184.031 285.107 179.951 285.493 176.373 285.034C176.004 289.083 176.354 293.414 176.361 297.49C176.386 306.375 176.367 315.261 176.302 324.147C182.661 331.317 190.157 337.473 196.436 344.741C211.118 361.735 218.532 385.414 218.789 407.647C218.888 416.204 218.82 424.767 218.815 433.325C218.813 436.914 218.47 440.912 218.83 444.466C229.778 449.1 238.403 457.94 242.767 468.998C246.006 477.201 245.85 485.334 245.852 493.986C245.796 499.991 245.831 505.996 245.957 512L121.982 512L0 512L0 480.346C0.898316 478.679 1.52129 473.069 2.52508 470.422C7.08788 458.388 15.3569 449.707 27.087 444.448C26.759 436.804 26.9442 429.1 26.9468 421.449C26.9494 413.87 26.7801 406.209 27.4865 398.654C29.214 380.177 36.1332 361.163 47.798 346.62C54.2534 338.572 62.5205 332.145 69.285 324.4L69.4829 324.17C69.767 315.164 69.5051 306.083 69.4903 297.07C69.4838 293.108 69.3156 289.062 69.6467 285.116C64.4785 284.755 59.0592 285.064 53.8668 285.06C48.3895 285.056 42.3401 284.551 36.9454 285.369C36.9379 275.405 37.3096 265.006 36.8327 255.103C44.053 255.325 51.3167 255.155 58.5418 255.149C61.9926 255.146 65.6437 254.906 69.0618 255.353L69.3538 255.159C69.8258 254.393 69.4951 221.417 69.5188 217.155C65.7449 211.85 61.4549 206.809 57.4169 201.7L34.7446 172.949C31.5619 168.9 25.6312 162.407 23.3539 158.268C23.3144 158.157 23.2704 158.047 23.2355 157.934C22.4269 155.323 22.879 151.213 22.882 148.434C22.8961 135.192 22.9985 123.463 29.511 111.392C36.6908 97.8548 48.9601 87.729 63.6136 83.2474C78.3906 78.7459 94.3558 80.3603 107.932 87.729C108.219 77.6615 107.838 67.5624 108.014 57.4874C99.991 57.9689 91.8379 57.088 83.8408 57.8496C83.6693 47.8561 84.2154 37.7412 83.6535 27.7735C91.7696 27.6987 99.9368 27.6208 108.049 27.8578C107.709 18.6013 107.952 9.26469 107.946 0Z"/><path fill="#2C2C2C" d="M122.837 285.02C140.657 284.862 158.555 284.763 176.373 285.034C176.004 289.083 176.354 293.414 176.361 297.49C176.386 306.375 176.367 315.261 176.302 324.147C182.661 331.317 190.157 337.473 196.436 344.741C211.118 361.735 218.532 385.414 218.789 407.647C218.888 416.204 218.82 424.767 218.815 433.325C218.813 436.914 218.47 440.912 218.83 444.466C214.725 443.394 210.841 441.98 206.592 441.435C202.183 440.87 197.717 440.992 193.282 440.999L177.67 441.012L122.933 440.992C123.429 411.171 123 381.279 122.998 351.447L122.994 310.26C122.994 301.853 123.142 293.422 122.837 285.02Z"/><path fill="#575656" d="M27.087 444.448C31.8611 443.433 36.4189 442.1 41.2942 441.527C50.6068 440.432 60.3152 441.001 69.6875 441.01C87.2658 441.026 104.872 441.204 122.447 440.983C121.373 449.055 121.954 458.473 121.956 466.689L121.982 512L0 512L0 480.346C0.898316 478.679 1.52129 473.069 2.52508 470.422C7.08788 458.388 15.3569 449.707 27.087 444.448Z"/><path fill="#575656" d="M23.3539 158.268C23.3144 158.157 23.2704 158.047 23.2355 157.934C22.4269 155.323 22.879 151.213 22.882 148.434C22.8961 135.192 22.9985 123.463 29.511 111.392C36.6908 97.8548 48.9601 87.729 63.6136 83.2474C78.3906 78.7459 94.3558 80.3603 107.932 87.729C110.242 89.8194 113.086 91.2301 115.525 93.16C118.05 95.1585 120.004 97.741 122.31 99.962C121.526 107.394 121.958 115.19 121.956 122.664C121.953 134.419 121.788 146.181 122.315 157.926C113.354 158.196 104.338 158.006 95.3698 158.005L46.8551 158.001C40.5967 158 34.3267 157.921 28.0706 158.076C26.627 158.112 24.7315 157.891 23.3539 158.268Z"/><path fill="#2C2C2C" d="M122.835 158.022L191.907 158.005L210.907 157.988C214.689 157.987 218.915 157.633 222.624 158.346C212.064 171.255 201.93 184.557 191.594 197.65L181.636 210.245C179.881 212.461 177.793 214.724 176.366 217.153L176.357 244.092C176.354 246.879 175.907 252.661 176.467 255.154C175.097 255.29 173.545 255.091 172.154 255.063C169.366 255.006 166.577 254.985 163.789 255.001C150.289 255.011 136.405 254.503 122.948 255.195C123.254 237.075 122.998 218.907 122.996 200.782C122.995 186.556 123.357 172.233 122.835 158.022Z"/><path fill="#575656" d="M36.8327 255.103C44.053 255.325 51.3167 255.155 58.5418 255.149C61.9926 255.146 65.6437 254.906 69.0618 255.353C72.7995 256.752 115.379 256.187 122.36 255.671C121.575 265.316 121.928 275.212 122.266 284.874C117.678 285.27 112.897 285.01 108.284 285.009L82.1216 284.998C78.5006 284.994 73.0294 284.507 69.6467 285.116C64.4785 284.755 59.0592 285.064 53.8668 285.06C48.3895 285.056 42.3401 284.551 36.9454 285.369C36.9379 275.405 37.3096 265.006 36.8327 255.103Z"/><path fill="#2C2C2C" d="M122.979 0L138.046 0L138.107 27.8386C146.142 27.5335 154.209 28.0056 162.236 27.6257C162.271 37.6857 162.083 47.7671 162.256 57.8231C154.235 57.2325 146.017 58.349 138.051 57.5531L138.061 76.4172C138.058 80.0185 137.792 83.9132 138.325 87.4703C132.737 91.1198 127.639 94.7672 122.954 99.5633C123.36 88.1618 123.007 76.6212 123.003 65.2083L122.979 0Z"/><defs><linearGradient id="gradient_0" gradientUnits="userSpaceOnUse" x1="343.20538" y1="284.95651" x2="342.46533" y2="511.18225"><stop offset="0" stop-color="#E9E5E0"/><stop offset="1" stop-color="#EEF6FF"/></linearGradient></defs><path fill="url(#gradient_0)" d="M355.54 285.033C359.806 285.293 364.212 285.037 368.491 285.009C375.579 285.579 383.009 285.125 390.133 285.13C392.918 285.132 396.031 284.87 398.748 285.47L399.037 285.181C403.05 284.505 408.284 285.002 412.422 285.003L441.763 285.013L442.373 284.933C442.873 291.811 442.555 298.86 442.553 305.762C442.552 311.435 442.896 317.368 442.434 323.007C442.473 323.586 442.494 324.061 442.832 324.55C444.131 326.428 446.195 328.155 447.822 329.774C452.131 334.061 456.692 338.214 460.877 342.611C462.855 344.69 464.709 347.134 466.397 349.462C473.746 359.602 478.733 371.249 481.96 383.306C485.41 396.197 485.088 409.412 485.079 422.63C485.074 429.877 485.216 437.161 485.02 444.404C480.502 443.068 475.907 441.845 471.213 441.339C462.602 440.41 453.322 441.005 444.622 441.005L399.029 441.034L398.945 489.491L398.938 503.763C398.935 506.456 399.096 509.33 398.771 512L286.059 512L286.004 493.685C286.003 489.321 285.863 484.906 286.34 480.563C286.722 477.054 287.51 473.601 288.688 470.273C293.117 458.013 301.7 449.706 313.37 444.286C312.779 436.822 313.102 429.147 313.095 421.659C313.087 412.942 312.891 404.226 313.876 395.548C315.779 378.776 322.794 360.559 333.294 347.281C338.092 341.214 344.02 335.882 349.509 330.429C351.54 328.411 353.741 326.438 355.55 324.22C355.611 324.145 355.67 324.07 355.73 323.994C355.354 317.813 355.516 311.579 355.514 305.386C355.512 298.606 355.381 291.811 355.54 285.033Z"/><path fill="#C5C5C4" d="M441.763 285.013L442.373 284.933C442.873 291.811 442.555 298.86 442.553 305.762C442.552 311.435 442.896 317.368 442.434 323.007C442.473 323.586 442.494 324.061 442.832 324.55C444.131 326.428 446.195 328.155 447.822 329.774C452.131 334.061 456.692 338.214 460.877 342.611C462.855 344.69 464.709 347.134 466.397 349.462C473.746 359.602 478.733 371.249 481.96 383.306C485.41 396.197 485.088 409.412 485.079 422.63C485.074 429.877 485.216 437.161 485.02 444.404C480.502 443.068 475.907 441.845 471.213 441.339C462.602 440.41 453.322 441.005 444.622 441.005L399.029 441.034C398.839 434.564 398.981 428.056 398.982 421.582L398.99 385.488L399.037 285.181C403.05 284.505 408.284 285.002 412.422 285.003L441.763 285.013Z"/><path fill="#EDF3FA" d="M441.763 285.013L442.373 284.933C442.873 291.811 442.555 298.86 442.553 305.762C442.552 311.435 442.896 317.368 442.434 323.007C441.973 322.492 441.832 322.142 441.782 321.47C441.387 316.105 441.77 310.461 441.768 305.057C441.766 298.409 441.417 291.642 441.763 285.013Z"/><path fill="#EAEAE9" d="M355.546 210.498C354.93 209.85 354.268 209.243 353.627 208.62C340.629 195.991 333.684 179.217 333.527 161.136C333.382 144.469 340.804 127.161 352.546 115.443C364.538 103.475 381.434 96.2083 398.428 96.1966C416.65 96.4483 433.401 102.862 446.23 116.093C458.295 128.624 464.908 145.421 464.625 162.814C464.357 177.96 458.828 192.541 448.986 204.057C447.017 206.375 444.771 208.474 442.592 210.594C442.457 220.923 442.55 231.263 442.57 241.593C442.577 245.226 443.08 251.827 442.383 255.11C445.881 254.851 473.677 254.561 475.177 255.403C475.61 257.762 475.347 260.377 475.327 262.777C475.295 267.301 475.293 271.825 475.322 276.349C475.335 279.193 475.179 282.216 475.588 285.028L453.85 285.03C450.085 285.032 446.116 285.29 442.373 284.933L441.763 285.013L412.422 285.003C408.284 285.002 403.05 284.505 399.037 285.181L398.748 285.47C396.031 284.87 392.918 285.132 390.133 285.13C383.009 285.125 375.579 285.579 368.491 285.009C364.212 285.037 359.806 285.293 355.54 285.033C344.761 284.741 333.89 285.023 323.102 285.024C322.782 275.032 322.921 264.944 323.054 254.947C332.583 255.097 342.117 254.96 351.647 255.061C352.654 255.071 355.009 255.349 355.687 254.684C355.372 248.887 355.506 243.057 355.511 237.251L355.546 210.498Z"/><path fill="#EDF3FA" d="M355.546 210.498C354.93 209.85 354.268 209.243 353.627 208.62C340.629 195.991 333.684 179.217 333.527 161.136C333.382 144.469 340.804 127.161 352.546 115.443C364.538 103.475 381.434 96.2083 398.428 96.1966L399.339 96.9142C399.299 97.0318 399.256 97.1486 399.218 97.2671C398.394 99.8611 398.961 122.233 398.962 126.8L398.963 190.746C398.962 202.798 399.141 214.882 398.87 226.929C391.901 226.037 384.996 225.472 378.347 223.041L378.188 223.209L378.173 223.149L378.469 223.322C382.509 225.632 397.262 226.363 398.462 227.58C398.945 229.804 398.63 232.506 398.627 234.807L398.626 248.523C398.634 252.06 398.873 255.563 398.941 259.095C399.105 267.641 399.159 276.338 398.834 284.878L377.833 284.856C374.902 284.854 371.325 284.459 368.491 285.009C364.212 285.037 359.806 285.293 355.54 285.033C344.761 284.741 333.89 285.023 323.102 285.024C322.782 275.032 322.921 264.944 323.054 254.947C332.583 255.097 342.117 254.96 351.647 255.061C352.654 255.071 355.009 255.349 355.687 254.684C355.372 248.887 355.506 243.057 355.511 237.251L355.546 210.498Z"/><path fill="#C5C5C4" d="M441.685 211.053C441.853 210.884 442.369 210.699 442.592 210.594C442.457 220.923 442.55 231.263 442.57 241.593C442.577 245.226 443.08 251.827 442.383 255.11L441.696 255.033C433.892 254.735 425.965 254.997 418.145 254.996C411.841 254.996 405.29 254.643 399.014 255.15L398.996 227.003C401.421 227.039 403.907 226.649 406.309 226.336C419.404 224.631 431.603 219.689 441.685 211.053Z"/><path fill="#EDF3FA" d="M441.685 211.053C441.853 210.884 442.369 210.699 442.592 210.594C442.457 220.923 442.55 231.263 442.57 241.593C442.577 245.226 443.08 251.827 442.383 255.11L441.696 255.033L441.742 224.171C441.735 219.869 442.121 215.326 441.685 211.053Z"/><path fill="#EAEAE9" d="M399.029 441.034L444.622 441.005C453.322 441.005 462.602 440.41 471.213 441.339C475.907 441.845 480.502 443.068 485.02 444.404C486.815 445.338 488.762 446.089 490.503 447.115C499.495 452.412 506.73 461.318 509.884 471.287C510.726 473.947 511.03 477.765 512 480.089L512 512L398.771 512C399.096 509.33 398.935 506.456 398.938 503.763L398.945 489.491L399.029 441.034Z"/></svg>